<svg xmlns="http://www.w3.org/2000/svg" xmlns:xlink="http://www.w3.org/1999/xlink" version="1.1" x="0px" y="0px" viewBox="0 0 48 48" style="enable-background:new 0 0 48 48;" xml:space="preserve">
<polygon style="fill:#90CAF9;" points="40,45 8,45 8,3 30,3 40,13 "/>
<polygon style="fill:#E1F5FE;" points="38.5,14 29,14 29,4.5 "/>
<g>
	<rect x="18" y="23" style="fill:#1976D2;" width="16" height="2"/>
	<rect x="18" y="19" style="fill:#1976D2;" width="16" height="2"/>
	<rect x="14" y="19" style="fill:#1976D2;" width="2" height="2"/>
	<rect x="14" y="23" style="fill:#1976D2;" width="2" height="2"/>
	<rect x="14" y="35" style="fill:#1976D2;" width="2" height="2"/>
	<rect x="14" y="27" style="fill:#1976D2;" width="2" height="2"/>
	<rect x="14" y="31" style="fill:#1976D2;" width="2" height="2"/>
</g>
<path style="fill:#43A047;" d="M48,38c0,5.523-4.478,10-10,10c-5.523,0-10-4.477-10-10s4.477-10,10-10C43.522,28,48,32.477,48,38"/>
<g>
	<path style="fill:#1976D2;" d="M33.219,27H18v2h12.089C31.018,28.182,32.069,27.502,33.219,27z"/>
	<path style="fill:#1976D2;" d="M26.395,35H18v2h8.051C26.108,36.315,26.227,35.648,26.395,35z"/>
	<path style="fill:#1976D2;" d="M28.273,31H18v2h9.105C27.431,32.293,27.822,31.625,28.273,31z"/>
</g>
<rect x="36" y="32" style="fill:#FFFFFF;" width="4" height="12"/>
<rect x="32" y="36" style="fill:#FFFFFF;" width="12" height="4"/>
<script xmlns="" type="text/javascript" src="chrome-extension://hejbmebodbijjdhflfknehhcgaklhano/../window/testing-library.js"/></svg>