<svg xmlns="http://www.w3.org/2000/svg" viewBox="0 0 106 106" id="assets"><path fill="hashtag#E0DFE5" d="m85.412 58.386-1.438 3.596-.414 1.034-1.438-1.034-2.62-1.892-26.845-19.347-.817-.592c-10.127 7.507-21.742 17.142-31.662 24.914-.818-1.34-1.123-3.073-1.94-4.413L51.83 33.59l.867.64 32.715 24.155zm-49.872-32.3c-.47 5.57-5.34 10.342-10.889 11.008-5.548.656-9.447-1.714-11.915-6.716-1.682-3.408-1.278-8.574 1.354-12.342 2.49-3.56 6.673-5.417 10.736-5.045 1.824.153 3.604.764 5.21 1.856.032.022.065.044.098.077 2.632 1.835 4.543 4.718 5.198 7.852a11.98 11.98 0 0 1 .208 3.31z"></path><path fill="hashtag#3F3F3F" d="M100.09 14.651c-9.638-9.74-9.078-9.31-9.505-9.426-3.612-1.011-19.698-2.34-34.448-.571a5.324 5.324 0 0 0-4.694 4.777c-.829 8.27-.803 16.065.052 23.218a1.003 1.003 0 0 0-.293.164C16.754 61.046 16.5 59.726 17.383 61.173c1.1 1.798 1.69 6.026 3.412 4.68.76-.595 1.53-1.19 2.308-1.784-.225 8.025.044 15.676.31 23.091.136 3.756.269 7.637.345 11.561-1.847-.091-17.894.014-18.306.042-1.308.088-1.187 2.068.133 1.996 21.72-1.275 53.642 3.953 76.027-.146 9.922 0 16.077.011 16.472.029 1.3.083 1.432-1.937.092-1.998-.1-.005-16.003-.161-17.737.134-1.004-37.977-.078-30.022.003-36.777l2.534 1.826a1 1 0 0 0 1.513-.44c1.343-3.948 2.578-5.022 1.517-5.806l-32.37-23.9c-.994-7.346-1.067-15.433-.203-24.051a3.333 3.333 0 0 1 2.942-2.99c10.877-1.306 21.964-1.17 32.97.403.056 2.274.066 6.738.023 8.306-.015.572.507 1.093 1.15 1.015.583-.069 6.248-.052 8.175-.013.943 4.808 1.05 39.302.142 44.63H88.71c-1.322 0-1.324 2 0 2h10.81v-.008c.35-.005.708-.175.905-.458 1.268-1.83 1.628-46.084-.335-47.864zM20.53 63.524c-.34-.826-.61-1.73-1.023-2.612L51.69 34.99c-.02 1.762-.019 1.682-.028 4.19a.975.975 0 0 0-.51.248c-9.285 8.841-20.91 16.577-30.621 24.097zm20.884 11.8c2.239.762 9.732 3.204 11.555 3.69.03 22.098-.066 20.734.07 21.096a462.05 462.05 0 0 1-12.292-.467l.667-24.32zm13.477 24.823c.149-.356.048.904.078-21.746.12-1.13-.286-.859-8.362-3.468h14.797c-.745 26.032-.994 24.69-.597 25.253a257.63 257.63 0 0 1-5.916-.04zm23.564-38.244c-.913 11.692-.299 26.16-.008 37.192-4.856.689-10.32.996-16.02 1.072.338-.503.06 1.056 1.009-26.202a1 1 0 0 0-1-1.032c-23.054.006-22.948-.39-22.984.972L38.75 99.54c-5.159-.27-8.44-.474-12.988-.715a695.034 695.034 0 0 0-.348-11.735c-.297-8.24-.574-16.035-.262-24.568 8.917-6.696 18.613-13.424 26.774-21.075 1.906 1.531 11.34 10.513 27.034 19.486l.159.114a.996.996 0 0 0-.663.858zm4.651-.446C76.45 56.661 67.6 52.7 53.658 40.287c.001-.88.01-2.969.02-4.088l30.519 22.533-1.09 2.725zm8.28-47.122c.015-1.518.01-3.815-.013-5.676l5.591 5.67a226.28 226.28 0 0 0-5.579.006z"></path><path fill="hashtag#3F3F3F" d="M47.214 86.363c-.264.3-.32.715-.176 1.06-.05.138-.07.286-.056.44.265 2.744 3.657 2.912 3.985.533.325-2.354-2.395-3.57-3.753-2.033zm2.251-33.742c-1.456.465-2.568 1.46-3.217 2.877-.854 1.87-1.07 3.736-.623 5.395.052.191.115.383.187.57.706 1.834 2.221 3.161 4.157 3.642.526.13 1.061.194 1.595.194 1.62 0 3.22-.59 4.486-1.694a6.519 6.519 0 0 0 1.573-2.006c2.61-5.231-2.892-10.669-8.158-8.978zm6.369 8.085c-.256.512-.625.98-1.098 1.392-1.19 1.037-2.79 1.434-4.285 1.065-1.313-.326-2.298-1.184-2.773-2.42a3.765 3.765 0 0 1-.122-.37c-.41-1.521.052-3.038.511-4.043.414-.903 1.088-1.51 2.007-1.804.392-.126.82-.186 1.264-.186.92 0 1.906.263 2.771.763 1.935 1.117 2.709 3.63 1.725 5.603zm41.144 16.009c-.291-1.065-1.855-.936-1.96.167-.167-.032-.374-.135-.593-.242-3.107-1.528-4.353 1.034-4.885 1.456-.046-.029-.272-.188-.305-.211-1.64-1.114-3.997-.964-5.482.35-.987.875.332 2.376 1.326 1.499.807-.716 2.14-.803 3.033-.194 3.476 2.233 2.744-2.418 5.43-1.106.342.168.729.36 1.203.43 1.275.2 2.58-.876 2.233-2.149zM24.444 24.597l-.203-.051c-.653-.16-1.07-.245-1.15-.902-.053-.429.1-.922.377-1.226 1.387-1.518 3.786-.263 3.746-1.966-.026-1.26-1.569-1.036-2.79-.73a8.858 8.858 0 0 1 .015-1.394c.099-1.318-1.895-1.47-1.994-.15-.068.898-.04 1.31-.004 1.878.011.169.023.372.035.6-.166.133-.341.256-.484.412-1.26 1.378-1.271 3.8.323 4.862.514.341 1.047.46 1.632.604.696.179 1.163.399 1.47.693.28.27.423.657.337.919-.262.79-3.398 1.519-4.553.449a.999.999 0 0 0-1.414.054c-1.097 1.181.982 2.299 2.608 2.44-.11 1.219-.194 2.864 1.023 2.864a1 1 0 0 0 .996-1.1c-.09-.899-.07-1.13-.018-1.688l.016-.19c3.693-.681 4.163-3.49 2.388-5.192-.742-.712-1.7-1.017-2.357-1.186z"></path><path fill="hashtag#3F3F3F" d="M36.536 26.17v-.007c.542-6.905-4.716-13.588-11.62-14.169C14.4 11.043 7.84 22.716 11.84 30.82c6.285 12.737 23.672 7.519 24.697-4.65zm-22.903 3.765c-4.547-9.211 6.625-20.587 15.93-14.19 3.22 2.245 5.3 6.176 4.98 10.26-.823 9.73-15.328 15.244-20.91 3.93zm64.04-13.637c1.293-.305.818-2.26-.46-1.945-4.912 1.162-9.558.89-15.024.122-1.306-.187-1.592 1.795-.278 1.98 2.643.371 5.399.676 8.24.676 2.45 0 4.965-.227 7.522-.833zm11.651 4.565c-7.157.892-18.371 1.418-26.417-.044-1.313-.227-1.651 1.731-.358 1.968 7.896 1.434 19.089 1.05 27.023.06 1.305-.163 1.075-2.138-.248-1.985zm-11.12 20.153c3.695-.681 4.163-3.492 2.389-5.192-1.605-1.538-3.556-.894-3.71-2.138-.186-1.537 1.578-2.136 3.147-2.17 1.311-.03 1.29-2.017-.045-2a7.788 7.788 0 0 0-1.767.252 8.82 8.82 0 0 1 .013-1.399c.1-1.315-1.895-1.476-1.994-.15-.085 1.133-.021 1.449.032 2.48-1.98 1.584-2.181 4.974 1.292 5.832 5.172 1.707-.98 3.579-2.568 2.106a.998.998 0 0 0-1.414.054c-1.095 1.183.982 2.298 2.608 2.439-.116 1.307-.181 2.973 1.124 2.86a1 1 0 0 0 .896-1.095c-.09-.9-.07-1.131-.019-1.69l.017-.19zM15.314 79.632a.999.999 0 0 0-1.413.072L8.758 85.4a1 1 0 0 0 .221 1.524l5.074 3.098a1.1 1.1 0 0 0 1.102 1.006c.344 0 .67-.155.895-.431.275-.336.355-.796.213-1.197-.167-.474-.551-.71-.716-.81l-4.497-2.745 4.334-4.8a1 1 0 0 0-.071-1.412zm76.651 12.349c.83 0 1.643-.56 2.006-1.42.34-.801.392-2.494-.109-3.192-1.134-1.577-5.318-.22-4.101 1.376-.089.723.692 3.236 2.204 3.236zm-.163-3.256c.113-.029.295-.065.41-.074.102 2.304-.7 1.016-.41.074zM42.977 11.359c.5-1.38.17-2.866-.817-3.699-2.133-1.796-5.013.884-3.617 2.038-.444 4.15 3.42 4.467 4.434 1.662zm-2.254-.165c-.545-.203.118-1.436-.38-2.09 1.128-.302.989 1.913.38 2.09zM9.51 12.79l2.623-4.894a1 1 0 0 0-.841-1.472c-1.2-.047-2.414.018-3.608.201a1 1 0 0 0-.838 1.139c.187 1.227 1.488.743 2.728.673l-1.827 3.408c-.624 1.166 1.143 2.101 1.763.945zm9.015 36.247c3.034 2.225 4.16-.757 4.857-.584 1.309.074 1.434-1.927.104-1.998-1.49-.073-2.41 1.393-2.958 1.417-1.026 0-1.871-2.81-5.815-.262-.125.08-1.738 1.083-1.847 1.2-.39-.172-1.353-2.388-4.027-1.63-4.226 1.192-2.3 3.628-1.048 2.786 3.73-2.515 2.484.83 5.033.838.101-.029.515.074 1.423-.513l1.551-1.002c1.695-1.093 1.965-.807 2.727-.252zM46.03 30.38a1 1 0 0 0 1.35-.417c.68-1.286-1.436-1.933-2.91-2.345l1.546-3.669c.515-1.224-1.332-1.99-1.843-.777-1.803 4.586-2.368 4.895-1.964 5.635.451.83 1.316.25 3.82 1.573z"></path></svg>