<svg xmlns="http://www.w3.org/2000/svg" viewBox="0 0 64 64" width="20" height="20"><path fill="#58595b" d="M33.333 22.384h-25.5A3.833 3.833 0 0 0 4 26.208v19.766a3.834 3.834 0 0 0 3.188 3.77v6.115a1.14 1.14 0 0 0 1.77.953l10.173-6.71a1.834 1.834 0 0 1 1.013-.305h13.189a3.833 3.833 0 0 0 3.833-3.823V26.208a3.833 3.833 0 0 0-3.833-3.824zm1.833 23.59a1.83 1.83 0 0 1-1.833 1.823h-13.19a3.83 3.83 0 0 0-2.114.635l-8.841 5.832V49.15c0-.746-.608-1.353-1.355-1.353A1.83 1.83 0 0 1 6 45.974V26.208a1.83 1.83 0 0 1 1.833-1.824h25.5a1.83 1.83 0 0 1 1.833 1.824v19.766z" class="color58595b svgShape"></path><path fill="#58595b" d="M56.167 7h-25.5a3.833 3.833 0 0 0-3.834 3.824v8.982a1 1 0 0 0 2 0v-8.982A1.83 1.83 0 0 1 30.667 9h25.5A1.83 1.83 0 0 1 58 10.824v19.765a1.83 1.83 0 0 1-1.833 1.824c-.747 0-1.354.607-1.354 1.353v5.114l-8.843-5.832a3.825 3.825 0 0 0-2.114-.635h-4.26a1 1 0 0 0 0 2h4.26c.361 0 .711.105 1.013.304l10.173 6.71a1.143 1.143 0 0 0 1.77-.953V34.36A3.833 3.833 0 0 0 60 30.589V10.824A3.833 3.833 0 0 0 56.167 7zM20.281 27.964c-2.874 0-4.57 1.84-4.57 4.9v5.17c0 3.06 1.696 4.9 4.57 4.9.641 0 1.22-.083 1.758-.27l1.302 1.592 1.49-1.302-1.138-1.365c.765-.847 1.178-2.047 1.178-3.556v-5.169c0-3.06-1.716-4.9-4.59-4.9zm1.944 10.07c0 1.57-.662 2.439-1.944 2.439s-1.943-.869-1.943-2.44v-5.169c0-1.571.662-2.44 1.943-2.44s1.944.869 1.944 2.44v5.17z" class="color58595b svgShape"></path><path fill="#58595b" d="M41.721 24.416h3.391l.579 2.626h2.646L44.781 12.57h-2.729l-3.556 14.473h2.647l.578-2.626zm1.096-5.107c.207-.992.434-2.584.558-3.556h.062c.145.972.373 2.564.58 3.556l.578 2.688h-2.357l.58-2.688z" class="color58595b svgShape"></path></svg>