<svg xmlns="http://www.w3.org/2000/svg" enable-background="new 0 0 512 512" viewBox="0 0 512 512" width="24" height="24"><rect width="322" height="10" x="95" y="180" fill="#1f3e75" class="color1f3e75 svgShape"></rect><rect width="200" height="360" x="5" y="5" fill="#ebeae0" class="colorebeae0 svgShape"></rect><path fill="#d7d5c1" d="M205,365v-56.7c-2.6,1.4-5,3.1-7.1,5c-2.1-0.1-4.2-0.1-6.3,0.3l-8.8-24.1
			c-6.2-17.1-25.2-25.9-42.3-19.7c-17.1,6.2-25.9,25.2-19.7,42.3l18.7,51.3l-1.1,1.7H205z" class="colord7d5c1 svgShape"></path><rect width="200" height="360" x="307" y="5" fill="#ebeae0" class="colorebeae0 svgShape"></rect><rect width="200" height="51" x="5" y="5" fill="#e36414" class="colore36414 svgShape"></rect><rect width="200" height="51" x="307" y="5" fill="#e36414" class="colore36414 svgShape"></rect><rect width="100" height="10" x="65" y="103" fill="#1f3e75" class="color1f3e75 svgShape"></rect><rect width="10" height="10" x="45" y="103" fill="#1f3e75" class="color1f3e75 svgShape"></rect><rect width="100" height="10" x="65" y="154" fill="#1f3e75" class="color1f3e75 svgShape"></rect><rect width="10" height="10" x="45" y="154" fill="#1f3e75" class="color1f3e75 svgShape"></rect><rect width="120" height="10" x="45" y="206" fill="#1f3e75" class="color1f3e75 svgShape"></rect><rect width="52" height="52" x="113" y="262" fill="#1f3e75" class="color1f3e75 svgShape"></rect><rect width="100" height="10" x="367" y="103" fill="#1f3e75" class="color1f3e75 svgShape"></rect><rect width="10" height="10" x="347" y="103" fill="#1f3e75" class="color1f3e75 svgShape"></rect><rect width="100" height="10" x="367" y="154" fill="#1f3e75" class="color1f3e75 svgShape"></rect><rect width="10" height="10" x="347" y="154" fill="#1f3e75" class="color1f3e75 svgShape"></rect><rect width="120" height="10" x="347" y="206" fill="#1f3e75" class="color1f3e75 svgShape"></rect><rect width="52" height="52" x="415" y="262" fill="#db3429" class="colordb3429 svgShape"></rect><path fill="#ffc970" d="M242.7,323.2L242.7,323.2c-5.6,2-8.4,8.2-6.4,13.7l7.1,19.5l-13.7-25.7
			c-2.7-5.1-8.7-7.4-14.1-5.4h0c-6,2.2-9.1,8.8-6.9,14.8l9.3,25.6l-12.5-26.4c-2.3-4.9-8.1-7.3-13.2-5.4h0c-5.1,1.9-8,7.2-6.7,12.5
			l7.1,28.6L164,296.3c-2.5-6.7-9.9-10.2-16.7-7.8h0c-6.7,2.5-10.2,9.9-7.8,16.7l22.2,60.9l-18,26.7l20.2,55.4l62.8,32.2l9.7,26.6
			h90.5l-20.3-55.7l-37.9-104l-13.6-20C252.5,323.2,247.3,321.6,242.7,323.2z" class="colorffc970 svgShape"></path><path fill="#ffb233" d="M161.8 366.2l19.2 52.6h0c-9.9-1.8-18-8.7-21.3-18.2l-7.2-20.7L161.8 366.2zM192.7 374.9L164 296.3c-2.5-6.7-9.9-10.2-16.7-7.8l0 0 28.6 78.6C178.4 373.9 185.9 377.4 192.7 374.9L192.7 374.9zM218 365.7l-12.5-26.4c-2.3-4.9-8.1-7.3-13.2-5.4l0 0 8.3 24c2.4 6.9 10 10.5 16.9 8L218 365.7zM243.4 356.5l-13.7-25.7c-2.7-5.1-8.7-7.4-14.1-5.4l8.9 24.1c2.5 6.8 10 10.2 16.8 7.8L243.4 356.5zM268.8 347.2l-13.6-20c-2.8-4-7.9-5.7-12.5-4l7.6 17.5c2.7 6.2 9.7 9.4 16.1 7.3L268.8 347.2z" class="colorffb233 svgShape"></path><rect width="200" height="10" x="5" y="51" fill="#4d2419" class="color4d2419 svgShape"></rect><rect width="100" height="10" x="65" y="103" fill="#4d2419" class="color4d2419 svgShape"></rect><rect width="10" height="10" x="45" y="103" fill="#4d2419" class="color4d2419 svgShape"></rect><rect width="100" height="10" x="65" y="154" fill="#4d2419" class="color4d2419 svgShape"></rect><rect width="10" height="10" x="45" y="154" fill="#4d2419" class="color4d2419 svgShape"></rect><rect width="120" height="10" x="45" y="206" fill="#4d2419" class="color4d2419 svgShape"></rect><rect width="200" height="10" x="307" y="51" fill="#4d2419" class="color4d2419 svgShape"></rect><rect width="100" height="10" x="367" y="103" fill="#4d2419" class="color4d2419 svgShape"></rect><rect width="10" height="10" x="347" y="103" fill="#4d2419" class="color4d2419 svgShape"></rect><rect width="100" height="10" x="367" y="154" fill="#4d2419" class="color4d2419 svgShape"></rect><rect width="10" height="10" x="347" y="154" fill="#4d2419" class="color4d2419 svgShape"></rect><rect width="120" height="10" x="347" y="206" fill="#4d2419" class="color4d2419 svgShape"></rect><path fill="#4d2419" d="M467,319h-52c-2.8,0-5-2.2-5-5v-52c0-2.8,2.2-5,5-5h52c2.8,0,5,2.2,5,5v52
				C472,316.8,469.8,319,467,319z M420,309h42v-42h-42V309z" class="color4d2419 svgShape"></path><path fill="#4d2419" d="M507 370H307c-2.8 0-5-2.2-5-5V190h-97v-10h102c2.8 0 5 2.2 5 5v175h190V10H312v155h-10V5c0-2.8 2.2-5 5-5h200c2.8 0 5 2.2 5 5v360C512 367.8 509.8 370 507 370zM326.9 512h-90.5c-2.1 0-4-1.3-4.7-3.3l-9-24.8-61-31.3c-1.1-.6-2-1.6-2.4-2.7l-20.2-55.4c-.5-1.5-.3-3.2.6-4.5l16.5-24.6-21.3-58.5c-3.4-9.3 1.4-19.7 10.8-23.1 9.3-3.4 19.7 1.4 23.1 10.8l14.6 40.1c1.8-2.4 4.3-4.3 7.3-5.4 4.6-1.7 9.6-1.1 13.5 1.3 1.6-4.4 5.1-8.1 9.8-9.8 6.7-2.5 14.2-.2 18.6 5.3 1.8-3.3 4.7-6 8.5-7.4 0 0 0 0 0 0 6.8-2.5 14.3 0 18.3 5.9l13.6 20c.2.3.4.7.6 1.1l58.1 159.8c.6 1.5.3 3.2-.6 4.6C330.1 511.2 328.6 512 326.9 512zM240 502h79.8l-55.5-152.5-13.2-19.4c-1.5-2.2-4.2-3-6.7-2.2-3 1.1-4.5 4.4-3.4 7.3l7.1 19.5c.9 2.5-.3 5.2-2.7 6.3-2.4 1.1-5.2.1-6.4-2.2l-13.7-25.7c-1.5-2.8-4.9-4.2-8-3.1-3.4 1.2-5.1 5-3.9 8.3l9.3 25.6c.9 2.5-.3 5.3-2.8 6.3-2.5 1-5.3-.1-6.4-2.5L201 341.4c-1.2-2.6-4.2-3.9-7-2.9-2.7 1-4.2 3.8-3.5 6.6l7.1 28.6c.6 2.6-.9 5.2-3.4 6-2.5.8-5.2-.6-6.2-3.1L159.3 298c-1.5-4.1-6.1-6.3-10.3-4.8-4.1 1.5-6.3 6.1-4.8 10.3l22.2 60.9c.5 1.5.3 3.2-.6 4.5l-16.5 24.6 18.6 51.2 61 31.3c1.1.6 2 1.6 2.4 2.7L240 502z" class="color4d2419 svgShape"></path><rect width="56" height="10" x="143.4" y="387.6" fill="#4d2419" transform="rotate(70.001 171.41 392.552)" class="color4d2419 svgShape"></rect><path fill="#4d2419" d="M141.4,370H5c-2.8,0-5-2.2-5-5V5c0-2.8,2.2-5,5-5h200c2.8,0,5,2.2,5,5v333.4h-10V10H10v350
				h131.4V370z" class="color4d2419 svgShape"></path><path fill="#4d2419" d="M142.8,319H113c-2.8,0-5-2.2-5-5v-52c0-2.8,2.2-5,5-5h52c2.8,0,5,2.2,5,5v36.9h-10V267h-42
				v42h24.8V319z" class="color4d2419 svgShape"></path></svg>