<svg xmlns="http://www.w3.org/2000/svg" data-name="Layer 1" viewBox="0 0 64 64" width="256" height="256"><path fill="gray" d="M46,46H16a5,5,0,0,1-5-5V21a5,5,0,0,1,5-5H46a5,5,0,0,1,5,5V41a5,5,0,0,1-5,5ZM16,18a3,3,0,0,0-2.07.83A3,3,0,0,0,13,21V41a3,3,0,0,0,3,3H46a3,3,0,0,0,3-3V21a2.94,2.94,0,0,0-.92-2.16A3,3,0,0,0,46,18Z" class="color333 svgShape"></path><path fill="#333333" d="M46,46H16a5,5,0,0,1-3.49-1.41,1,1,0,0,1-.3-.73,1,1,0,0,1,.32-.72L26.6,29.94,28,31.4,14.8,43.75A3,3,0,0,0,16,44H46a3,3,0,0,0,1.2-.25L34,31.4l1.37-1.46,14.07,13.2a1,1,0,0,1,.32.72,1,1,0,0,1-.3.73A5,5,0,0,1,46,46Z" class="color333 svgShape"></path><path fill="#333333" d="M31,34.32a3,3,0,0,1-2-.77L12.57,18.85a1,1,0,0,1,0-1.46A4.94,4.94,0,0,1,16,16H46a4.94,4.94,0,0,1,3.45,1.39,1,1,0,0,1,0,1.46L33,33.55A3,3,0,0,1,31,34.32ZM14.87,18.22,30.33,32.06a1,1,0,0,0,1.34,0L47.13,18.22A3.07,3.07,0,0,0,46,18H16A3.07,3.07,0,0,0,14.87,18.22Z" class="color333 svgShape"></path></svg>