<svg xmlns="http://www.w3.org/2000/svg" viewBox="0 0 24 24" width="256" height="256"><path d="M20 19v2a1 1 0 0 1-1 1H3a1 1 0 0 1-1-1V3a1 1 0 0 1 1-1h16a1 1 0 0 1 1 1v7a1 1 0 0 1-2 0V4H4v16h14v-1a1 1 0 0 1 2 0Zm1.71-7.46a1 1 0 0 0-1.42 0l-4.79 4.8-1.79-1.8A1 1 0 0 0 12.29 16l2.5 2.5a1 1 0 0 0 1.42 0l5.5-5.5a1 1 0 0 0 0-1.46ZM15 6h-5a1 1 0 0 0 0 2h5a1 1 0 0 0 0-2ZM7 8a1 1 0 1 0-1-1 1 1 0 0 0 1 1Zm0 4a1 1 0 1 0-1-1 1 1 0 0 0 1 1Zm9-1a1 1 0 0 0-1-1h-5a1 1 0 0 0 0 2h5a1 1 0 0 0 1-1Zm-9 5h3a1 1 0 0 0 0-2H7a1 1 0 0 0 0 2Z" data-name="37 Forms" fill="#000000" class="color000 svgShape"></path></svg>