<svg id="SvgjsSvg1014" width="16" height="16" xmlns="http://www.w3.org/2000/svg" version="1.1" xmlns:xlink="http://www.w3.org/1999/xlink" xmlns:svgjs="http://svgjs.com/svgjs"><defs id="SvgjsDefs1015"></defs><g id="SvgjsG1016"><svg xmlns="http://www.w3.org/2000/svg" viewBox="0 0 48 48" width="16" height="16"><path d="M3.13 42.99h29.33c.07.08.14.16.23.21.23.12.51.11.73-.03l3.9-2.43 4.15 6.66c.11.17.27.29.47.33.06.01.11.02.17.02.14 0 .28-.04.4-.11l4.88-3.04c.17-.11.29-.27.33-.47.04-.19.01-.4-.09-.57l-4.15-6.66 3.9-2.43c.22-.14.36-.38.35-.65 0-.26-.14-.5-.37-.64l-9.42-5.58V3.13A2.88 2.88 0 0 0 35.06.25H3.13A2.88 2.88 0 0 0 .25 3.13v36.98a2.88 2.88 0 0 0 2.88 2.88zm38.93-6.97c-.35.22-.46.68-.24 1.03l4.15 6.66-3.61 2.25-4.15-6.66a.725.725 0 0 0-.47-.33c-.06-.01-.11-.02-.17-.02-.14 0-.28.04-.4.11l-3.49 2.17-1.19-15.12 13.05 7.73-3.48 2.18zM32.01 24.09a.754.754 0 0 0-.78.01c-.24.15-.37.42-.35.7l.35 4.43H18.49v1.5h12.86l.25 3.15H18.5v1.5h13.22l.48 6.12H3.13c-.76 0-1.38-.62-1.38-1.38V8.31h34.7v18.4l-4.44-2.62zM3.13 1.75h31.93c.76 0 1.38.62 1.38 1.38v3.68H1.75V3.13c0-.76.62-1.38 1.38-1.38z" fill="#000000" class="color000 svgShape"></path><path d="M9.65 35.8h1.5v-2.75h2.75v-1.5h-2.75V28.8h-1.5v2.75H6.9v1.5h2.75z" fill="#000000" class="color000 svgShape"></path><path d="M15.32 26.63H5.48c-.41 0-.75.34-.75.75v9.84c0 .41.34.75.75.75h9.84c.41 0 .75-.34.75-.75v-9.84c0-.42-.33-.75-.75-.75zm-.75 9.84H6.23v-8.34h8.34v8.34zM9.25 20.34c.19 0 .38-.07.53-.22l4.65-4.65-1.06-1.06-4.12 4.12-1.82-1.82-1.06 1.06 2.35 2.35c.15.15.34.22.53.22z" fill="#000000" class="color000 svgShape"></path><path d="M15.32 11.6H5.48c-.41 0-.75.34-.75.75v9.84c0 .41.34.75.75.75h9.84c.41 0 .75-.34.75-.75v-9.84c0-.42-.33-.75-.75-.75zm-.75 9.84H6.23V13.1h8.34v8.34zM18.49 14.19H32.4v1.5H18.49zM18.49 18.84H32.4v1.5H18.49zM4.24 3.52h2v1.5h-2zM8.4 3.52h2v1.5h-2zM12.55 3.52h2v1.5h-2z" fill="#000000" class="color000 svgShape"></path></svg></g></svg>