<svg xmlns="http://www.w3.org/2000/svg" enable-background="new 0 0 512 512" viewBox="0 0 512 512" width="16" height="16"><path fill="#d3cbe4" d="M441,176v310H141v-40c0.15-0.156,259.837-269.831,260-270H441z" class="colord3cbe4 svgShape"></path><path fill="#e8e3f0" d="M401,446c-22.694,0-288.767,0-300,0v-40c0.15-0.156,259.837-269.831,260-270h40
			C401,147.941,401,429.474,401,446z" class="colore8e3f0 svgShape"></path><path fill="#fbf3f3" d="M361,406c-12.6,0-277.249,0-290,0V26h210l24,60l56,20
			C361,119.477,361,391.323,361,406z" class="colorfbf3f3 svgShape"></path><polygon fill="#e8e3f0" points="361 106 281 106 281 26" class="colore8e3f0 svgShape"></polygon><circle cx="141" cy="96" r="30" fill="#ffdd33" class="colorfd3 svgShape"></circle><path fill="#80aaff" d="M321 176H111c-5.523 0-10-4.477-10-10s4.477-10 10-10h210c5.522 0 10 4.477 10 10S326.522 176 321 176zM321 216H111c-5.523 0-10-4.477-10-10s4.477-10 10-10h210c5.522 0 10 4.477 10 10S326.522 216 321 216zM321 256H111c-5.523 0-10-4.477-10-10s4.477-10 10-10h210c5.522 0 10 4.477 10 10S326.522 256 321 256zM321 296H161c-5.523 0-10-4.478-10-10s4.477-10 10-10h160c5.522 0 10 4.478 10 10S326.522 296 321 296z" class="color80aaff svgShape"></path><path fill="#ff884d" d="M121,296h-10c-5.523,0-10-4.478-10-10s4.477-10,10-10h10c5.523,0,10,4.478,10,10
			S126.523,296,121,296z" class="colorff884d svgShape"></path><path fill="#80aaff" d="M321,336H161c-5.523,0-10-4.478-10-10s4.477-10,10-10h160c5.522,0,10,4.478,10,10
			S326.522,336,321,336z" class="color80aaff svgShape"></path><path fill="#53e261" d="M121,336h-10c-5.523,0-10-4.478-10-10s4.477-10,10-10h10c5.523,0,10,4.478,10,10
			S126.523,336,121,336z" class="color53e261 svgShape"></path><path fill="#80aaff" d="M321,376H161c-5.523,0-10-4.478-10-10s4.477-10,10-10h160c5.522,0,10,4.478,10,10
			S326.522,376,321,376z" class="color80aaff svgShape"></path><path fill="#ffdd33" d="M121,376h-10c-5.523,0-10-4.478-10-10s4.477-10,10-10h10c5.523,0,10,4.478,10,10
			S126.523,376,121,376z" class="colorfd3 svgShape"></path></svg>