<svg xmlns="http://www.w3.org/2000/svg" enable-background="new 0 0 66 66" viewBox="0 0 66 66" id="income"><path d="M21.4 26.5c1.1 0 2.1-.2 3.2-.5.4 6.9 6.1 12.4 13.1 12.4 7 0 12.7-5.5 13.1-12.4 1 .3 2.1.5 3.1.5 6.1 0 11-4.9 11-11 0-6.1-4.9-11-11-11-5.2 0-9.7 3.7-10.7 8.8-1.7-.8-3.5-1.2-5.5-1.2-2 0-3.8.4-5.5 1.2-1-5.1-5.5-8.8-10.7-8.8-6.1 0-11 4.9-11 11C10.4 21.5 15.3 26.5 21.4 26.5zM53.9 5.5c5.5 0 10 4.5 10 10 0 5.5-4.5 10-10 10-1 0-2.1-.2-3.1-.5-.1-4.8-2.8-9-6.7-11.2C44.9 9 49 5.5 53.9 5.5zM49.8 25.1C49.8 25.1 49.8 25.1 49.8 25.1c-.1.1 0 .3 0 .4-.1 6.6-5.5 11.9-12.1 11.9-6.7 0-12.1-5.4-12.1-12.1s5.4-12.1 12.1-12.1C44.2 13.1 49.7 18.4 49.8 25.1zM21.4 5.5c4.8 0 9 3.5 9.8 8.3-3.9 2.2-6.6 6.4-6.7 11.2-1 .3-2.1.5-3.1.5-5.5 0-10-4.5-10-10C11.4 10 15.9 5.5 21.4 5.5zM13.2 56.7c3.5 0 4.9 1.1 14.4 4.1 3.6 1.2 7.6.9 11-.9L62 47.8c1.7-.9 2.3-3 1.3-4.7-.9-1.4-2.6-1.9-4-1.3l-16.5 6.6c-.1-3-2.5-5.3-5.5-5.3h-6c-2.6 0-3.7-1.2-10.6-4.2-1.1-.5-2.3-.8-3.4-.8h-4.8c-.3-1.1-1.2-1.9-2.4-1.9H1.7c-.3 0-.5.2-.5.5v21.4c0 .3.2.5.5.5H10c1.2 0 2.2-.8 2.4-1.9H13.2zM20.3 39.8c6.8 2.9 8.1 4.3 11 4.3h6c2.5 0 4.5 2 4.5 4.5 0 .4-.3.7-.7.7H27.9c-.3 0-.5.2-.5.5s.2.5.5.5h13.2c.5 0 1-.2 1.3-.6l17.3-7c1-.4 2.2 0 2.8.9.7 1.2.3 2.7-.9 3.3L38.1 59c-3.1 1.6-6.9 1.9-10.2.8-9.5-3-11-4.2-14.7-4.2h-.7V39.1h4.8C18.3 39.1 19.3 39.4 20.3 39.8zM10 57.6H2.2V37.2H10c.8 0 1.5.7 1.5 1.5v17.4C11.5 56.9 10.8 57.6 10 57.6z"></path><path d="M36.5 31v.2c0 .6.5 1.1 1.1 1.1.6 0 1.1-.5 1.1-1.1V31c2.3-.8 3.5-3.9 1.1-6.2-.6-.6-1.4-.8-2.2-.7-.9 0-1.6-.8-1.3-1.7.1-.4.5-.8.9-.9.9-.2 1.7.4 1.7 1.3V23h2.2v-.2c0-1.5-1-2.9-2.4-3.4v-.2c0-.6-.5-1.1-1.1-1.1-.6 0-1.1.5-1.1 1.1v.2c-2.3.8-3.5 3.9-1.1 6.2.6.6 1.4.8 2.2.7.9 0 1.6.8 1.3 1.7-.1.4-.5.8-.9.9-.9.2-1.7-.4-1.7-1.3v-.2h-2.2v.2C34.1 29.2 35.1 30.5 36.5 31zM20.5 20.3v.2c0 .5.4.9.9.9.5 0 .9-.4.9-.9v-.2c1.9-.6 2.9-3.2.9-5.1-.5-.5-1.2-.6-1.8-.6-.7 0-1.3-.6-1.1-1.4.1-.4.4-.7.8-.8.7-.2 1.4.4 1.4 1.1v.2h1.8v-.2c0-1.3-.8-2.4-2-2.8v-.2c0-.5-.4-.9-.9-.9-.5 0-.9.4-.9.9v.2c-1.9.6-2.9 3.2-1 5.1.5.5 1.1.6 1.8.6.7 0 1.3.6 1.1 1.4-.1.4-.4.7-.8.8-.7.2-1.4-.4-1.4-1.1v-.2h-1.8v.2C18.4 18.8 19.3 19.9 20.5 20.3zM53 20.3v.2c0 .5.4.9.9.9.5 0 .9-.4.9-.9v-.2c1.9-.6 2.9-3.2.9-5.1-.5-.5-1.2-.6-1.8-.6-.7 0-1.3-.6-1.1-1.4.1-.4.4-.7.8-.8.7-.2 1.4.4 1.4 1.1v.2h1.8v-.2c0-1.3-.8-2.4-2-2.8v-.2c0-.5-.4-.9-.9-.9-.5 0-.9.4-.9.9v.2c-1.9.6-2.9 3.2-1 5.1.5.5 1.1.6 1.8.6.7 0 1.3.6 1.1 1.4-.1.4-.4.7-.8.8-.7.2-1.4-.4-1.4-1.1v-.2H51v.2C51 18.8 51.8 19.9 53 20.3z"></path></svg>