<svg xmlns="http://www.w3.org/2000/svg" enable-background="new 0 0 24 24" viewBox="0 0 24 24" width="20" height="20"><path d="M13.1464844,15.8066406l-4.1699219,4.1699219c-1.3677979,1.3677368-3.5853271,1.3677368-4.953125,0c-1.3677368-1.3677979-1.3677368-3.5853271,0-4.953125l4.1699219-4.1699829c0.0023804-0.0023804,0.0047607-0.0047607,0.0071411-0.0071411c0.1932373-0.1972046,0.1900635-0.5137329-0.0071411-0.7070312c-0.1972656-0.1932373-0.5137939-0.1900024-0.7070312,0.0072021l-4.1699219,4.1699219c-0.8463135,0.8450317-1.3212891,1.9923096-1.3200684,3.1882324C1.9989014,19.9893799,4.0152588,22.0015869,6.5,21.9990234c1.1938477,0.0021973,2.3394775-0.4711304,3.1835938-1.3154297l4.1698608-4.1699829c0.0024414-0.0023193,0.0048218-0.0046997,0.0071411-0.0070801c0.1932983-0.1972046,0.1900635-0.5137329-0.0071411-0.7070312C13.656311,15.6062622,13.3397217,15.609436,13.1464844,15.8066406z M20.6836548,3.3078003c-1.7606812-1.7558594-4.6113281-1.7520142-6.3671875,0.008667l-4.1699219,4.1699219c-0.0024414,0.0023193-0.0048218,0.0046997-0.0072021,0.0071411C9.946106,7.6907349,9.9493408,8.0072632,10.1465454,8.2005005c0.1972046,0.1932983,0.5137329,0.1900635,0.7069702-0.0071411l4.1699219-4.1699219c1.3677979-1.3677368,3.5853271-1.3677368,4.953125,0c1.3677368,1.3677979,1.3677368,3.5853271,0,4.953125l-4.1699219,4.1699219c-0.09375,0.09375-0.1464233,0.2208862-0.1464233,0.3534546c0,0.276123,0.2238159,0.5,0.499939,0.500061c0.1326294,0.0001831,0.2598877-0.0525513,0.3535767-0.1464233l4.1699219-4.1699829c0.0028687-0.0028687,0.0057373-0.0057373,0.008606-0.008606C22.4481201,7.9143677,22.4442749,5.0637207,20.6836548,3.3078003z M14.1464844,9.1464844l-5,5c-0.09375,0.09375-0.1464233,0.2208862-0.1464233,0.3534546C9,14.776062,9.223877,14.999939,9.5,15c0.1326294,0.0001221,0.2598267-0.0526123,0.3534546-0.1465454l5-5c0.1871338-0.1937256,0.1871338-0.5009155,0-0.6947021C14.6616211,8.960144,14.3450928,8.9546509,14.1464844,9.1464844z" fill="#000000" class="color000 svgShape"></path></svg>