<svg xmlns="http://www.w3.org/2000/svg" enable-background="new 0 0 1024 1024" viewBox="0 0 1024 1024" width="256" height="256"><path d="M512,583.2c-4.8,0-9.5-0.3-14.2-0.9c2.7,0.4,5.3,0.7,8,1.1c-8.9-1.3-17.5-3.7-25.8-7.1c2.4,1,4.8,2,7.2,3
				c-5.6-2.5-11.1-5.3-16.2-8.7c-1.5-1-2.9-2-4.3-3c-4.2-3,5.7,4.7,2,1.5c-2.5-2.1-4.9-4.3-7.2-6.6c-2.2-2.2-4.1-4.5-6.2-6.7
				c-4.2-4.7,4.1,5.7,1.1,1.5c-0.9-1.2-1.8-2.5-2.6-3.7c-3.6-5.3-6.6-10.9-9.1-16.7c1,2.4,2,4.8,3,7.2c-3.5-8.3-5.9-16.9-7.1-25.8
				c0.4,2.7,0.7,5.3,1.1,8c-1.2-9.2-1.2-18.5,0-27.7c-0.4,2.7-0.7,5.3-1.1,8c1.3-8.9,3.7-17.5,7.1-25.8c-1,2.4-2,4.8-3,7.2
				c2.5-5.6,5.3-11.1,8.7-16.2c1-1.5,2-2.9,3-4.3c3-4.2-4.7,5.7-1.5,2c2.1-2.5,4.3-4.9,6.6-7.2c2.2-2.2,4.5-4.1,6.7-6.2
				c4.7-4.2-5.7,4.1-1.5,1.1c1.2-0.9,2.5-1.8,3.7-2.6c5.3-3.6,10.9-6.6,16.7-9.1c-2.4,1-4.8,2-7.2,3c8.3-3.5,16.9-5.9,25.8-7.1
				c-2.7,0.4-5.3,0.7-8,1.1c9.3-1.2,18.7-1.2,28,0c-2.7-0.4-5.3-0.7-8-1.1c8.4,1.2,16.6,3.5,24.5,6.7c-2.4-1-4.8-2-7.2-3
				c6.1,2.6,11.9,5.6,17.4,9.3c1.1,0.7,2.1,1.5,3.2,2.2c4.1,2.8-6.5-5.4-0.9-0.7c2.3,1.9,4.6,4,6.8,6.1c2.2,2.1,4.2,4.4,6.2,6.7
				c4.7,5.6-3.5-5-0.7-1c0.8,1.1,1.5,2.1,2.3,3.2c3.7,5.4,6.8,11.2,9.4,17.3c-1-2.4-2-4.8-3-7.2c3.5,8.3,5.8,16.9,7.1,25.8
				c-0.4-2.7-0.7-5.3-1.1-8c1.2,9.2,1.2,18.4,0,27.6c0.4-2.7,0.7-5.3,1.1-8c-1.3,8.9-3.6,17.5-7.1,25.8c1-2.4,2-4.8,3-7.2
				c-2.6,6-5.7,11.8-9.4,17.3c-0.7,1.1-1.5,2.1-2.3,3.2c-2.9,4,5.4-6.5,0.7-1c-2,2.3-4,4.6-6.2,6.7c-2.2,2.1-4.4,4.2-6.8,6.1
				c-5.6,4.7,5-3.5,0.9-0.7c-1.1,0.7-2.1,1.5-3.2,2.2c-5.5,3.7-11.3,6.7-17.4,9.3c2.4-1,4.8-2,7.2-3c-7.9,3.2-16.1,5.4-24.5,6.7
				c2.7-0.4,5.3-0.7,8-1.1C521.2,582.8,516.6,583.1,512,583.2c-15.7,0.2-30.7,13.7-30,30c0.7,16.1,13.2,30.2,30,30
				c26.5-0.3,53.6-8.2,75.1-24c22.9-16.8,39.6-38.8,49-65.7c17.4-49.7,0.4-109.5-40.8-142.2c-22.6-18-48.7-28.5-77.7-30.1
				c-25.4-1.5-52,5.4-73.7,18.6c-21.7,13.2-40.3,33-50.8,56.3c-12.1,26.9-15.5,55.6-9.5,84.6C395.9,600,451.9,643.2,512,643.2
				c15.7,0,30.7-13.8,30-30C541.3,596.9,528.8,583.2,512,583.2z" fill="#bcbcbc" class="color000 svgShape"></path><path d="M512,128.5c-78.4,0.2-156.9,24.3-220.7,70C227,244.5,178.4,308,151.1,382.2
				c-27.3,74.5-29.8,158.6-8.1,234.8c20.9,73.4,64.4,141,123.4,189.5c62.1,51.1,137.3,81.7,217.5,87.9c78.4,6.2,159-13.3,226.2-54.1
				c65-39.4,118.7-98.6,150-168c17.2-38,27.9-77.2,32.8-118.6c4.7-39.9,2.3-80.4-5.6-119.8c-15.2-75.4-54.8-146.1-110.4-199.1
				c-55.5-52.9-127.2-89.6-203.2-101.2C553.4,130.5,532.8,128.6,512,128.5c-15.7,0-30.7,13.8-30,30c0.7,16.3,13.2,30,30,30
				c15.8,0,31.5,1.1,47.2,3.1c-2.7-0.4-5.3-0.7-8-1.1c31.2,4.2,61.7,12.5,90.7,24.8c-2.4-1-4.8-2-7.2-3c16.2,6.9,31.9,15,46.9,24.2
				c7.5,4.6,14.7,9.4,21.8,14.6c1.8,1.3,3.5,2.6,5.3,3.9c0.7,0.5,1.4,1.1,2.1,1.6c4.3,3.2-6.1-4.8-1.9-1.5c3.4,2.7,6.8,5.5,10.1,8.3
				c13.3,11.3,25.8,23.5,37.3,36.6c2.7,3.1,5.4,6.3,8,9.5c1.2,1.5,2.5,3,3.7,4.6c1.4,1.7,4.5,6-1.5-1.9c0.8,1,1.6,2.1,2.4,3.1
				c5.2,7,10.2,14.2,15,21.6c10.7,16.7,19.9,34.3,27.7,52.5c-1-2.4-2-4.8-3-7.2c12.2,29,20.6,59.5,24.8,90.7c-0.4-2.7-0.7-5.3-1.1-8
				c4.1,31.3,4.1,63,0,94.3c0.4-2.7,0.7-5.3,1.1-8c-4.2,31.2-12.5,61.7-24.8,90.7c1-2.4,2-4.8,3-7.2c-6.9,16.2-15,31.9-24.2,46.9
				c-4.6,7.5-9.4,14.7-14.6,21.8c-1.3,1.8-2.6,3.5-3.9,5.3c-0.5,0.7-1.1,1.4-1.6,2.1c-3.2,4.3,4.8-6.1,1.5-1.9
				c-2.7,3.4-5.5,6.8-8.3,10.1c-11.3,13.3-23.5,25.8-36.6,37.3c-3.1,2.7-6.3,5.4-9.5,8c-1.5,1.2-3,2.5-4.6,3.7
				c-1.7,1.4-6,4.5,1.9-1.5c-1,0.8-2.1,1.6-3.1,2.4c-7,5.2-14.2,10.2-21.6,15c-16.7,10.7-34.3,19.9-52.5,27.7c2.4-1,4.8-2,7.2-3
				c-29,12.2-59.5,20.6-90.7,24.8c2.7-0.4,5.3-0.7,8-1.1c-31.3,4.1-63,4.1-94.3,0c2.7,0.4,5.3,0.7,8,1.1
				c-31.2-4.2-61.7-12.5-90.7-24.8c2.4,1,4.8,2,7.2,3c-16.2-6.9-31.9-15-46.9-24.2c-7.5-4.6-14.7-9.4-21.8-14.6
				c-1.8-1.3-3.5-2.6-5.3-3.9c-0.7-0.5-1.4-1.1-2.1-1.6c-4.3-3.2,6.1,4.8,1.9,1.5c-3.4-2.7-6.8-5.5-10.1-8.3
				c-13.3-11.3-25.8-23.5-37.3-36.6c-2.7-3.1-5.4-6.3-8-9.5c-1.2-1.5-2.5-3-3.7-4.6c-1.4-1.7-4.5-6,1.5,1.9c-0.8-1-1.6-2.1-2.4-3.1
				c-5.2-7-10.2-14.2-15-21.6c-10.7-16.7-19.9-34.3-27.7-52.5c1,2.4,2,4.8,3,7.2c-12.2-29-20.6-59.5-24.8-90.7
				c0.4,2.7,0.7,5.3,1.1,8c-4.1-31.3-4.1-63,0-94.3c-0.4,2.7-0.7,5.3-1.1,8c4.2-31.2,12.5-61.7,24.8-90.7c-1,2.4-2,4.8-3,7.2
				c6.9-16.2,15-31.9,24.2-46.9c4.6-7.5,9.4-14.7,14.6-21.8c1.3-1.8,2.6-3.5,3.9-5.3c0.5-0.7,1.1-1.4,1.6-2.1
				c3.2-4.3-4.8,6.1-1.5,1.9c2.7-3.4,5.5-6.8,8.3-10.1c11.3-13.3,23.5-25.8,36.6-37.3c3.1-2.7,6.3-5.4,9.5-8c1.5-1.2,3-2.5,4.6-3.7
				c1.7-1.4,6-4.5-1.9,1.5c1-0.8,2.1-1.6,3.1-2.4c7-5.2,14.2-10.2,21.6-15c16.7-10.7,34.3-19.9,52.5-27.7c-2.4,1-4.8,2-7.2,3
				c29-12.2,59.5-20.6,90.7-24.8c-2.7,0.4-5.3,0.7-8,1.1c15.6-2.1,31.4-3.1,47.2-3.1c15.7,0,30.7-13.8,30-30
				C541.3,142.3,528.8,128.5,512,128.5z" fill="#bcbcbc" class="color000 svgShape"></path><path d="M542 969.1c0-30.2 0-60.4 0-90.6 0-4.3 0-8.6 0-13 0-15.7-13.8-30.7-30-30-16.3.7-30 13.2-30 30 0 30.2 0 60.4 0 90.6 0 4.3 0 8.6 0 13 0 15.7 13.8 30.7 30 30C528.3 998.4 542 985.9 542 969.1L542 969.1zM542 158.5c0-30.2 0-60.4 0-90.6 0-4.3 0-8.6 0-13 0-15.7-13.8-30.7-30-30-16.3.7-30 13.2-30 30 0 30.2 0 60.4 0 90.6 0 4.3 0 8.6 0 13 0 15.7 13.8 30.7 30 30C528.3 187.8 542 175.3 542 158.5L542 158.5zM969.1 482c-30.2 0-60.4 0-90.6 0-4.3 0-8.6 0-13 0-15.7 0-30.7 13.8-30 30 .7 16.3 13.2 30 30 30 30.2 0 60.4 0 90.6 0 4.3 0 8.6 0 13 0 15.7 0 30.7-13.8 30-30C998.4 495.7 985.9 482 969.1 482L969.1 482zM158.5 482c-30.2 0-60.4 0-90.6 0-4.3 0-8.6 0-13 0-15.7 0-30.7 13.8-30 30 .7 16.3 13.2 30 30 30 30.2 0 60.4 0 90.6 0 4.3 0 8.6 0 13 0 15.7 0 30.7-13.8 30-30C187.8 495.7 175.3 482 158.5 482L158.5 482z" fill="#bcbcbc" class="color000 svgShape"></path></svg>