<svg xmlns="http://www.w3.org/2000/svg" viewBox="0 0 90 90" width="20" height="20"><path d="M21.25 45.912c-1.51 0-1.4 2.267.109 2.267h16.484c1.572 0 1.572-2.272 0-2.267-4.818.032-12.271 0-16.593 0zm0 10.135c-1.51 0-1.4 2.266.109 2.266H32.38c1.572 0 1.572-2.276 0-2.266-4.812.031-6.808 0-11.13 0zm0 10.135c-1.51 0-1.4 2.272.109 2.272H32.38c1.572 0 1.572-2.276 0-2.272-4.812.032-6.808 0-11.13 0zm0-30.405c-1.51 0-1.4 2.265.109 2.265h21.568c1.572 0 1.572-2.276 0-2.265-4.818.031-17.355 0-21.677 0z" fill="#000000" class="color000 svgShape"></path><path fill-rule="evenodd" d="M28.006 5.037c-.328 0-.641.146-.859.391l-16.516 18.99a1.155 1.155 0 0 0-.277.746v58.655c0 .625.506 1.136 1.131 1.136h28.078a1.135 1.135 0 0 0 1.188-1.131c0-.646-.541-1.161-1.188-1.136H12.619V26.293h17.387c.625 0 1.135-.505 1.135-1.13v-12.99a1.132 1.132 0 1 0-2.265 0v11.854h-14.9L28.521 7.302h38.381v25.699a1.132 1.132 0 0 0 1.129 1.186c.646 0 1.162-.541 1.137-1.186V6.179c0-.625-.506-1.136-1.131-1.142H28.006z" clip-rule="evenodd" fill="#000000" class="color000 svgShape"></path><path fill-rule="evenodd" d="M43.896 58.313h33.369v18.36a5.89 5.89 0 0 1-5.926 5.921H49.818a5.885 5.885 0 0 1-5.922-5.921v-18.36zm16.688-12.875c2.572 0 4.547 1.87 4.547 4.078v6.532h-9.094v-6.532c0-2.208 1.969-4.078 4.547-4.078zm0-7.005c6.385 0 11.463 4.781 11.463 10.609v7.005h-4.65v-6.532c0-3.547-3.115-6.342-6.813-6.342s-6.818 2.795-6.818 6.342v6.532h-4.65v-7.005c-.001-5.828 5.083-10.609 11.468-10.609zm0-2.265c-7.531 0-13.734 5.734-13.734 12.875v7.005h-4.088a1.138 1.138 0 0 0-1.131 1.135v19.491c0 4.514 3.666 8.187 8.188 8.187H71.34c4.516 0 8.191-3.672 8.191-8.187V57.182c0-.624-.51-1.135-1.135-1.135h-4.084v-7.005c.001-7.14-6.203-12.874-13.728-12.874z" clip-rule="evenodd" fill="#000000" class="color000 svgShape"></path><path fill-rule="evenodd" d="M60.584 64.605c1.584 0 2.928 1.396 2.928 3.24 0 1.099-.516 2.114-1.318 2.702a1.12 1.12 0 0 0-.443 1.14l.938 4.615H58.48l.938-4.615a1.132 1.132 0 0 0-.443-1.14c-.807-.588-1.322-1.598-1.322-2.702-.001-1.844 1.343-3.24 2.931-3.24zm0-2.265c-2.906 0-5.197 2.52-5.197 5.505 0 1.416.859 2.552 1.77 3.572l-1.182 5.797a1.133 1.133 0 0 0 1.109 1.354h6.99a1.129 1.129 0 0 0 1.113-1.354l-1.182-5.803c.912-1.02 1.771-2.156 1.771-3.566.001-2.985-2.292-5.505-5.192-5.505z" clip-rule="evenodd" fill="#000000" class="color000 svgShape"></path></svg>