<svg xmlns="http://www.w3.org/2000/svg" viewBox="0 0 100 100" width="20" height="20"><path d="M62.273 39.502c3.336 0 6.049-2.713 6.049-6.049s-2.713-6.049-6.049-6.049-6.049 2.713-6.049 6.049 2.712 6.049 6.049 6.049zm0-9.195a3.15 3.15 0 0 1 3.146 3.146 3.15 3.15 0 0 1-3.146 3.146 3.15 3.15 0 0 1-3.146-3.146 3.148 3.148 0 0 1 3.146-3.146zm-19.281 9.195c3.336 0 6.049-2.713 6.049-6.049s-2.714-6.049-6.049-6.049c-3.336 0-6.049 2.713-6.049 6.049s2.714 6.049 6.049 6.049zm0-9.195a3.15 3.15 0 0 1 3.146 3.146 3.15 3.15 0 0 1-3.146 3.146 3.15 3.15 0 0 1-3.146-3.146 3.15 3.15 0 0 1 3.146-3.146zm-13.231 3.146c0-3.336-2.714-6.049-6.049-6.049s-6.049 2.713-6.049 6.049 2.714 6.049 6.049 6.049 6.049-2.713 6.049-6.049zm-6.049 3.146a3.15 3.15 0 0 1-3.146-3.146c0-1.735 1.411-3.146 3.146-3.146s3.146 1.411 3.146 3.146a3.15 3.15 0 0 1-3.146 3.146z" fill="#000000" class="color000 svgShape"></path><path d="M87.645 23.068h-6.66V18.38c0-4.056-3.299-7.355-7.355-7.355H12.355C8.299 11.025 5 14.324 5 18.38v30.142c0 4.056 3.299 7.355 7.353 7.355l4.846.007c1.253 4.533-.829 13.278-7.48 18.443a1.452 1.452 0 0 0 1.203 2.564c7.677-1.694 13.855-4.715 18.405-8.963h33.717c3.589 10.911 12.34 17.978 26.024 21.013a1.453 1.453 0 0 0 1.207-2.564c-6.647-5.169-8.726-13.914-7.474-18.449h4.844c4.056 0 7.355-3.299 7.355-7.355v-30.15c0-4.056-3.299-7.355-7.355-7.355zM19.557 53.854a1.451 1.451 0 0 0-1.329-.872l-5.873-.008a4.457 4.457 0 0 1-4.452-4.452V18.38a4.457 4.457 0 0 1 4.452-4.452h61.274a4.457 4.457 0 0 1 4.452 4.452v30.142a4.457 4.457 0 0 1-4.452 4.452l-37.743.008a1.45 1.45 0 0 0-1.393 1.044c-1.334 4.563-3.536 8.296-6.733 11.411-3.152 3.071-7.253 5.473-12.234 7.168 5.075-6.495 5.826-14.621 4.031-18.751zm72.54 6.718a4.457 4.457 0 0 1-4.452 4.452h-5.871c-.578 0-1.101.343-1.332.872-1.795 4.129-1.045 12.255 4.021 18.752-9.975-3.411-16.342-9.643-18.958-18.58a1.45 1.45 0 0 0-1.393-1.044H32.059c.005-.006.009-.014.015-.02a27.365 27.365 0 0 0 1.646-2.294c.403-.622.79-1.257 1.144-1.916l.029-.05a29 29 0 0 0 1.001-2.093 31.822 31.822 0 0 0 1.063-2.767l36.673-.008c4.056 0 7.355-3.299 7.355-7.355v-22.55h6.66a4.457 4.457 0 0 1 4.452 4.451v30.15z" fill="#000000" class="color000 svgShape"></path></svg>