<svg xmlns="http://www.w3.org/2000/svg" enable-background="new 0 0 64 64" viewBox="0 0 64 64" width="256" height="256"><path d="M43.3,58.8H20.1c-3.1,0-5.6-2.5-5.6-5.6v-43c0-3.1,2.5-5.6,5.6-5.6h23.2c3.1,0,5.6,2.5,5.6,5.6v43
	C48.9,56.3,46.4,58.8,43.3,58.8z M20.1,6.7c-2,0-3.6,1.6-3.6,3.6v43c0,2,1.6,3.6,3.6,3.6h23.2c2,0,3.6-1.6,3.6-3.6v-43
	c0-2-1.6-3.6-3.6-3.6C43.3,6.7,20.1,6.7,20.1,6.7z" fill="#606060" class="color000 svgShape"></path><path d="M40.5 48.5H22.9c-1.8 0-3.2-1.5-3.2-3.2V14.2c0-1.8 1.5-3.2 3.2-3.2h17.6c1.8 0 3.3 1.5 3.3 3.2v31.1C43.8 47.1 42.3 48.5 40.5 48.5zM22.9 13c-.7 0-1.2.6-1.2 1.2v31.1c0 .7.6 1.2 1.2 1.2h17.6c.7 0 1.3-.6 1.3-1.2v-31c0-.7-.6-1.2-1.3-1.2L22.9 13zM32 55.8c-1.8 0-3.2-1.4-3.2-3.2s1.4-3.2 3.2-3.2c1.8 0 3.2 1.4 3.2 3.2S33.7 55.8 32 55.8zM32 51.4c-.7 0-1.2.5-1.2 1.2s.5 1.2 1.2 1.2 1.2-.5 1.2-1.2S32.6 51.4 32 51.4zM37.9 9.8H25.8c-.6 0-1-.4-1-1s.4-1 1-1h12.1c.6 0 1 .4 1 1S38.5 9.8 37.9 9.8z" fill="#606060" class="color000 svgShape"></path></svg>