<svg xmlns="http://www.w3.org/2000/svg" viewBox="0 0 96 96" width="20" height="20"><g data-name="File Document" fill="#000000" class="color000 svgShape"><path d="M76.1 65.56H28.88a1 1 0 100 2H76.1a1 1 0 000-2zM52.49 72.59H28.88a1 1 0 100 2H52.49a1 1 0 100-2z" fill="#000000" class="color000 svgShape"></path><path d="M85.61,18.18C85.47,17.87,68,.47,67.91.38,67.46,0,70.12.11,24.43.11a5.16,5.16,0,0,0-5.16,5.16V9.08H15.46a5.16,5.16,0,0,0-5.16,5.16V90.73a5.17,5.17,0,0,0,5.16,5.16H71.57a5.17,5.17,0,0,0,5.16-5.16V86.92h3.81a5.17,5.17,0,0,0,5.16-5.17C85.7,14.21,85.75,18.49,85.61,18.18ZM68.24,3.52,82.29,17.58H71.4a3.16,3.16,0,0,1-3.16-3.16Zm6.49,87.21a3.17,3.17,0,0,1-3.16,3.16H15.46a3.17,3.17,0,0,1-3.16-3.16V14.24a3.17,3.17,0,0,1,3.16-3.16h3.81V81.75a5.17,5.17,0,0,0,5.16,5.17h50.3Zm5.81-5.81H24.43a3.17,3.17,0,0,1-3.16-3.17V5.27a3.17,3.17,0,0,1,3.16-3.16H66.24V14.42a5.17,5.17,0,0,0,5.16,5.16H83.7V81.75A3.16,3.16,0,0,1,80.54,84.92Z" fill="#000000" class="color000 svgShape"></path><path d="M30 23.83h6.18a2.16 2.16 0 002.16-2.15V15.49a2.16 2.16 0 00-2.16-2.16H30a2.16 2.16 0 00-2.16 2.16v6.19A2.16 2.16 0 0030 23.83zm-.16-8.34a.16.16 0 01.16-.16h6.18a.16.16 0 01.16.16v6.19a.16.16 0 01-.16.15H30a.16.16 0 01-.16-.15zM76.1 30.38H28.88a1 1 0 100 2H76.1a1 1 0 100-2zM76.1 37.41H28.88a1 1 0 100 2H76.1a1 1 0 000-2zM76.1 44.45H28.88a1 1 0 100 2H76.1a1 1 0 000-2zM76.1 51.49H28.88a1 1 0 000 2H76.1a1 1 0 000-2zM76.1 58.52H28.88a1 1 0 000 2H76.1a1 1 0 000-2z" fill="#000000" class="color000 svgShape"></path></g></svg>