<svg xmlns="http://www.w3.org/2000/svg" data-name="Layer 3" viewBox="0 0 64 64" width="40" height="40"><rect width="42" height="54" x="6" y="6" fill="#696a6c" class="color696a6c svgShape"></rect><rect width="34" height="40" x="10" y="14" fill="#e0e0e0" class="colore0e0e0 svgShape"></rect><path fill="#eeeeee" d="M10,14V51H36a5,5,0,0,0,5-5V14Z" class="coloreee svgShape"></path><rect width="11" height="27" x="17" y="20" fill="#ffffff" rx="5.5" class="colorfff svgShape"></rect><rect width="20" height="8" x="17" y="2" fill="#eeab46" class="coloreeab46 svgShape"></rect><path fill="#f8d859" d="M17,2V8H32a3,3,0,0,0,3-3V2Z" class="colorf8d859 svgShape"></path><rect width="7" height="3" x="19" y="3" fill="#fded72" rx="1.5" class="colorfded72 svgShape"></rect><path fill="#bdbdbd" d="M27,19a7.008,7.008,0,0,1-7-7V10h2v2a5,5,0,0,0,10,0V10h2v2A7.008,7.008,0,0,1,27,19Z" class="colorbdbdbd svgShape"></path><rect width="2" height="2" x="20" y="5" fill="#eeab46" class="coloreeab46 svgShape"></rect><rect width="28" height="2" x="13" y="23" fill="#bdbdbd" class="colorbdbdbd svgShape"></rect><rect width="28" height="2" x="13" y="27" fill="#bdbdbd" class="colorbdbdbd svgShape"></rect><rect width="28" height="2" x="13" y="31" fill="#bdbdbd" class="colorbdbdbd svgShape"></rect><rect width="28" height="2" x="13" y="35" fill="#bdbdbd" class="colorbdbdbd svgShape"></rect><rect width="28" height="2" x="13" y="39" fill="#bdbdbd" class="colorbdbdbd svgShape"></rect><rect width="28" height="2" x="13" y="43" fill="#bdbdbd" class="colorbdbdbd svgShape"></rect><rect width="28" height="2" x="13" y="47" fill="#bdbdbd" class="colorbdbdbd svgShape"></rect><circle cx="46" cy="50" r="12" fill="#2b66ba" class="color2b66ba svgShape"></circle><path fill="#3e89de" d="M46,38a11.986,11.986,0,0,0-9.733,19H47a6,6,0,0,0,6-6V40.267A11.928,11.928,0,0,0,46,38Z" class="color3e89de svgShape"></path><circle cx="42" cy="49" r="4" fill="#5ba5ef" class="color5ba5ef svgShape"></circle><circle cx="48.5" cy="42.5" r="1.5" fill="#5ba5ef" class="color5ba5ef svgShape"></circle><rect width="2" height="2" x="32" y="5" fill="#eeab46" class="coloreeab46 svgShape"></rect><polygon fill="#eeab46" points="50 43 40 53 40 56 43 56 53 46 50 43" class="coloreeab46 svgShape"></polygon><polygon fill="#f8d859" points="40 55 42 55 52 45 50 43 40 53 40 55" class="colorf8d859 svgShape"></polygon></svg>