<svg xmlns="http://www.w3.org/2000/svg" viewBox="0 0 32 32" width="40" height="40"><path fill="#eef2fa" d="M17.5 15l4.8-3.6c.8-.6 1.2-1.5 1.2-2.4V3.5h-15V9c0 .9.4 1.8 1.2 2.4l4.8 3.6v2l-4.8 3.6c-.8.6-1.2 1.5-1.2 2.4v5.5h15V23c0-.9-.4-1.8-1.2-2.4L17.5 17v-2z" class="coloreef2fa svgShape"></path><path fill="#b0c4da" d="M12.5 5h11V3.5h-15V9c0 .9.4 1.8 1.2 2.4l4.8 3.6v2l-4.8 3.6c-.8.6-1.2 1.5-1.2 2.4v5.5h2V23c0-.9.4-1.8 1.2-2.4l4.8-3.6v-2l-4.8-3.6c-.8-.6-1.2-1.5-1.2-2.4V7c0-1.1.9-2 2-2z" class="colorb0c4da svgShape"></path><path fill="#fecb5b" d="M17.5 15l4.8-3.6c.8-.6 1.2-1.5 1.2-2.4v-.5h-15V9c0 .9.4 1.8 1.2 2.4l4.8 3.6v2h3v-2z" class="colorfecb5b svgShape"></path><path fill="#607d95" d="M23.5 3.5h-15c-.6 0-1-.4-1-1s.4-1 1-1h15c.6 0 1 .4 1 1s-.4 1-1 1z" class="color607d95 svgShape"></path><path fill="#516d97" d="M8.5 8.5h15M14.5 17h3M16 17.5v6M14.5 15h3" class="color516d97 svgShape"></path><path fill="#607d95" d="M23.5 30.5h-15c-.6 0-1-.4-1-1s.4-1 1-1h15c.6 0 1 .4 1 1s-.4 1-1 1z" class="color607d95 svgShape"></path><path fill="#fecb5b" d="M8.5 27v1.5h15V27c0-.9-.6-1.7-1.5-1.9l-6-1.6-6 1.6c-.9.2-1.5 1-1.5 1.9z" class="colorfecb5b svgShape"></path><path fill="#f8b545" d="M11.7 11.4c-.8-.6-1.2-1.5-1.2-2.4v-.5h-2V9c0 .9.4 1.8 1.2 2.4l4.8 3.6v2h2v-2l-4.8-3.6z" class="colorf8b545 svgShape"></path><path fill="#4b6c85" d="M9.5 2.5c0-.6.4-1 1-1h-2c-.6 0-1 .4-1 1s.4 1 1 1h2c-.6 0-1-.4-1-1zM9.5 29.5c0-.6.4-1 1-1h-2c-.6 0-1 .4-1 1s.4 1 1 1h2c-.6 0-1-.4-1-1z" class="color4b6c85 svgShape"></path><path fill="#f8b545" d="M23.5 27h-13c0-.9.6-1.7 1.5-1.9l5-1.3-1-.3-6 1.6c-.9.2-1.5 1-1.5 1.9v1.5h15V27z" class="colorf8b545 svgShape"></path><path fill="#f8b545" d="M16 24c-.3 0-.5-.2-.5-.5v-6c0-.3.2-.5.5-.5s.5.2.5.5v6c0 .3-.2.5-.5.5z" class="colorf8b545 svgShape"></path></svg>