<svg xmlns="http://www.w3.org/2000/svg" viewBox="0 0 36 36" width="40" height="40"><path fill="#ffdc97" d="M20.8 16.2H15v.9c0 2.4-.7 4.7-2.1 6.6v3.7h9.9v-3.7c-1.3-1.9-2.1-4.2-2.1-6.6v-.9z" class="colorFFDC97 svgShape"></path><path fill="#65b1ef" d="M30.4 27.3V31c0 1.6-1.3 3-3 3H8.6c-1.6 0-3-1.3-3-3v-3.8c0-1.1.6-2.1 1.6-2.6l7.2-3.7v.1l1.9 2.6 1.7.4 1.7-.3 1.9-2.6V21l7.2 3.7c1 .5 1.6 1.5 1.6 2.6z" class="color65B1EF svgShape"></path><path fill="#3e4347" d="m18.8 26.4.9 4.6-1.7 1.7-1.8-1.7.9-4.6-.9-.9L18 24l1.7 1.5z" class="color3E4347 svgShape"></path><path fill="#ffe9ab" d="M24.3 12.1c0 5.2-3.4 7.1-5.2 7.7-.7.2-1.5.2-2.3 0-1.8-.6-5.2-2.5-5.2-7.7 0-4.4 2.9-8 6.4-8 3.5 0 6.3 3.6 6.3 8z" class="colorFFE9AB svgShape"></path><ellipse cx="24" cy="13" fill="#ffe9ab" rx="1.2" ry="1.9" transform="rotate(5.878 24.037 12.972)" class="colorFFE9AB svgShape"></ellipse><ellipse cx="11.9" cy="13" fill="#ffe9ab" rx="1.2" ry="1.9" transform="rotate(174.122 11.888 12.976)" class="colorFFE9AB svgShape"></ellipse><path fill="#3e4347" d="m23.6 13.2-1-4.9s-4 1.9-7-1c0 0-.4 1.5-2.2 1.6l-.9 4.3c-1-1.1-3.1-10.9 1.5-9.1 2.2-5.2 15-.3 9.6 9.1z" class="color3E4347 svgShape"></path><path fill="#ffffff" d="M22.3 22.1 20.9 26c-.1.2-.4.3-.6.1L18 24l3.2-4.2 1 2c.1.2.1.3.1.3zM14.7 19.8 18 24l-2.5 2.2c-.2.2-.5.1-.6-.1l-1.3-3.9v-.3l1.1-2.1z" class="colorFFF svgShape"></path></svg>