<svg id="SvgjsSvg1133" width="150" height="150" xmlns="http://www.w3.org/2000/svg" version="1.1" xmlns:xlink="http://www.w3.org/1999/xlink" xmlns:svgjs="http://svgjs.com/svgjs"><defs id="SvgjsDefs1134"></defs><g id="SvgjsG1135"><svg xmlns="http://www.w3.org/2000/svg" viewBox="0 0 24 24" width="150" height="150"><path fill="#f2f2f2" d="M12 .404 3 6.228V23a1 1 0 0 0 1 1h16a1 1 0 0 0 1-1V6.228L12 .404z" class="colorF2F2F2 svgShape"></path><path fill="#66bfd5" d="M6 9h5v5H6zM13 9h5v5h-5z" class="color669FD5 svgShape"></path><path fill="#606465" d="M13 16h5v8h-5z" class="colorA1ABB2 svgShape"></path><path fill="#66bfd5" d="M6 16h5v5H6z" class="color669FD5 svgShape"></path><path fill="#606465" d="M6 9h5v5H6z" class="colorA1ABB2 svgShape"></path><path fill="#96e0f2" d="M7 10h3v3H7z" class="color96D1F2 svgShape"></path><path fill="#606465" d="M6 16h5v5H6z" class="colorA1ABB2 svgShape"></path><path fill="#96e0f2" d="M7 17h3v3H7z" class="color96D1F2 svgShape"></path><path fill="#606465" d="M13 9h5v5h-5z" class="colorA1ABB2 svgShape"></path><path fill="#96e0f2" d="M14 10h3v3h-3z" class="color96D1F2 svgShape"></path><circle cx="12" cy="5" r="2" fill="#96e0f2" class="color96D1F2 svgShape"></circle><path d="M10.763 3.763a2.004 2.004 0 0 1 2.737-.086 2.002 2.002 0 0 0-2.914-.091 2.002 2.002 0 0 0 .09 2.914 2.005 2.005 0 0 1 .087-2.737z" opacity=".05" fill="#000000" class="color000 svgShape"></path><path fill="#f2f2f2" d="M15 0v3.31l3 1.5V0z" class="colorF2F2F2 svgShape"></path><path d="M15 0v3.31l3 1.5V0z" opacity=".1" fill="#000000" class="color000 svgShape"></path><path fill="#ffffff" d="M2.971 7H3l.567-.347zM20.433 6.653 21 7h.029z" opacity=".2" class="colorFFF svgShape"></path><circle cx="16.5" cy="20" r=".5" fill="#c6cfd1" class="colorC6CDD1 svgShape"></circle><path fill="#28c2e8" d="M22 8V6.5L12 0 2 6.5V8l10-6.5z" class="colorE83628 svgShape"></path><path fill="#ffffff" d="M12 0 2 6.5v.25l10-6.5 10 6.5V6.5z" opacity=".2" class="colorFFF svgShape"></path><path d="M20 23.75H4a1 1 0 0 1-1-1V23a1 1 0 0 0 1 1h16a1 1 0 0 0 1-1v-.25a1 1 0 0 1-1 1z" opacity=".1" fill="#000000" class="color000 svgShape"></path><linearGradient id="a" x1="1.481" x2="23.492" y1="7.613" y2="17.877" gradientUnits="userSpaceOnUse"><stop offset="0" stop-color="#ffffff" stop-opacity=".2" class="stopColorFFF svgShape"></stop><stop offset="1" stop-color="#ffffff" stop-opacity="0" class="stopColorFFF svgShape"></stop></linearGradient><path fill="url(#a)" d="m22 6.5-4-2.6V0h-3v1.95L12 0 2 6.5V8l1-.65V23a1 1 0 0 0 1 1h16a1 1 0 0 0 1-1V7.35L22 8V6.5z"></path></svg></g></svg>