<svg xmlns="http://www.w3.org/2000/svg" data-name="Layer 1" viewBox="0 0 512 512" width="256" height="256"><path fill="#4a4f60" d="M401.363 296.251a29.346 29.346 0 0 1-19.338 31.911 382.796 382.796 0 0 1-132.866 21.69 382.496 382.496 0 0 1-121.634-21.895 29.296 29.296 0 0 1-19.268-31.277l23.138-184.445A119.646 119.646 0 0 1 250.125 7.5h5.642a119.647 119.647 0 0 1 118.407 102.359Z" class="color4a4f60 svgShape"></path><path fill="#3b3f4d" d="M401.363 296.251 374.174 109.86A119.647 119.647 0 0 0 255.767 7.5h-5.642a120.184 120.184 0 0 0-19.688 1.62 119.66 119.66 0 0 1 98.737 100.739l27.19 186.392a29.346 29.346 0 0 1-19.339 31.911 383.62 383.62 0 0 1-104.487 21.063q8.146.483 16.621.627a382.798 382.798 0 0 0 132.866-21.69 29.346 29.346 0 0 0 19.338-31.91Z" class="color3b3f4d svgShape"></path><path fill="#66c1ff" d="M441.33 504.5H70.67a25.58 25.58 0 0 1-24.9-31.45l10.73-59.8A50.87 50.87 0 0 1 96.2 375l70.82-13.93 86.7-17.05a4.837 4.837 0 0 1 1.82-.01l91.54 17.22 71.65 13.48a50.91 50.91 0 0 1 40.84 41.96l7.03 58.2a25.59 25.59 0 0 1-25.27 29.63Z" class="color66c1ff svgShape"></path><path fill="#4eb7ff" d="m466.6 474.87-7.03-58.2a50.91 50.91 0 0 0-40.84-41.96l-71.65-13.48-91.54-17.22a4.837 4.837 0 0 0-1.82.01l-86.7 17.05L96.2 375a50.837 50.837 0 0 0-22.403 10.555l48.223-9.485 86.7-17.05a4.837 4.837 0 0 1 1.82-.01l91.54 17.22 71.65 13.48a50.91 50.91 0 0 1 40.84 41.96l7.03 58.2a25.396 25.396 0 0 1-1.972 14.63h21.702a25.59 25.59 0 0 0 25.27-29.63Z" class="color4eb7ff svgShape"></path><path fill="#4eb7ff" d="M347.08 361.23v1.21a23.137 23.137 0 0 1-8.9 18.22l-2.44 1.9-33.66-6.33-91.54-17.22a4.837 4.837 0 0 0-1.82.01l-41.27 8.12-45.43 8.93-48.22 9.49A50.741 50.741 0 0 1 96.2 375l70.82-13.93 86.7-17.05a4.837 4.837 0 0 1 1.82-.01Z" class="color4eb7ff svgShape"></path><path fill="#a6f3ba" d="M347.08 361.23v1.21a23.137 23.137 0 0 1-8.9 18.22l-77.16 60.05a9.274 9.274 0 0 1-11.54-.12l-73.92-59.94a23.059 23.059 0 0 1-8.54-17.93v-1.65l86.7-17.05a4.837 4.837 0 0 1 1.82-.01Z" class="colora6f3ba svgShape"></path><path fill="#90f0a9" d="M347.08 361.23v1.21a23.137 23.137 0 0 1-8.9 18.22l-2.44 1.9-33.66-6.33-91.54-17.22a4.837 4.837 0 0 0-1.82.01l-41.27 8.12a22.378 22.378 0 0 1-.43-4.42v-1.65l86.7-17.05a4.837 4.837 0 0 1 1.82-.01Z" class="color90f0a9 svgShape"></path><path fill="#ffcd85" d="m303.065 362.398-43.303 33.705a6 6 0 0 1-7.464-.074l-41.472-33.632a13.095 13.095 0 0 1-4.847-10.171v-72.852h102.138v72.69a13.095 13.095 0 0 1-5.052 10.334Z" class="colorffcd85 svgShape"></path><path fill="#ffcd85" d="M342.196 144.939v108.494a53.464 53.464 0 0 1-25.127 45.34l-29.125 18.222a62.423 62.423 0 0 1-66.189 0l-29.125-18.222a53.464 53.464 0 0 1-25.127-45.34V144.947a43.093 43.093 0 0 0 41.51-29.838 107.284 107.284 0 0 0 21.7 19.94s.718.492 1.43.974c34.328 23.265 71.93 15.418 110.053 8.916Z" class="colorffcd85 svgShape"></path><path fill="#ffc570" d="M232.142 136.023c-.71-.482-1.429-.974-1.429-.974a107.284 107.284 0 0 1-21.7-19.94 43.093 43.093 0 0 1-41.51 29.839v15a43.093 43.093 0 0 0 41.51-29.839 107.284 107.284 0 0 0 21.7 19.94s.718.492 1.43.974c34.328 23.265 71.93 15.418 110.053 8.916v-15c-38.122 6.502-75.725 14.349-110.054-8.916Z" class="colorffc570 svgShape"></path><path fill="#ffc570" d="M312.196 149.763v103.67a53.464 53.464 0 0 1-25.127 45.34l-29.125 18.222a62.367 62.367 0 0 1-18.094 7.667 62.423 62.423 0 0 0 48.094-7.667l29.125-18.223a53.464 53.464 0 0 0 25.127-45.339V144.94c-10.053 1.715-20.07 3.518-30 4.824Z" class="colorffc570 svgShape"></path><path fill="#676e87" d="M105.848 165.49h32.316v45.67h-32.316a7.554 7.554 0 0 1-7.553-7.553v-30.563a7.554 7.554 0 0 1 7.553-7.554Z" class="color676e87 svgShape"></path><path fill="#4a4f60" d="M341.772 285.634h-81.91a7.5 7.5 0 0 1 0-15h81.91a17.682 17.682 0 0 0 17.667-17.658v-21.81a7.5 7.5 0 1 1 15 0v21.81a32.7 32.7 0 0 1-32.667 32.658Z" class="color4a4f60 svgShape"></path><path fill="#676e87" d="M167.504 231.704h-18.477a25.862 25.862 0 0 1-25.862-25.862v-35.031a25.862 25.862 0 0 1 25.862-25.863h18.477v86.756Z" class="color676e87 svgShape"></path><path fill="#595f74" d="M138.164 205.841V170.81a25.862 25.862 0 0 1 25.862-25.862h-15a25.862 25.862 0 0 0-25.862 25.862v35.031a25.862 25.862 0 0 0 25.862 25.863h15a25.862 25.862 0 0 1-25.862-25.863Z" class="color595f74 svgShape"></path><rect width="42.058" height="29.601" x="232.805" y="263.333" fill="#313440" rx="14.66" class="color313440 svgShape"></rect><path fill="#676e87" d="M403.851 211.162h-32.315v-45.67h32.315a7.554 7.554 0 0 1 7.554 7.553v30.563a7.554 7.554 0 0 1-7.554 7.554Z" class="color676e87 svgShape"></path><path fill="#595f74" d="M403.85 165.49h-15a7.554 7.554 0 0 1 7.554 7.554v30.563a7.554 7.554 0 0 1-7.553 7.554h15a7.554 7.554 0 0 0 7.553-7.554v-30.563a7.554 7.554 0 0 0-7.553-7.554Z" class="color595f74 svgShape"></path><path fill="#676e87" d="M342.196 144.948h18.477a25.862 25.862 0 0 1 25.862 25.862v35.031a25.862 25.862 0 0 1-25.862 25.863h-18.477v-86.756Z" class="color676e87 svgShape"></path><path fill="#595f74" d="M360.673 144.948h-15a25.862 25.862 0 0 1 25.862 25.862v35.031a25.862 25.862 0 0 1-25.862 25.863h15a25.862 25.862 0 0 0 25.862-25.863V170.81a25.862 25.862 0 0 0-25.862-25.862Z" class="color595f74 svgShape"></path></svg>