<svg xmlns="http://www.w3.org/2000/svg" fill-rule="evenodd" clip-rule="evenodd" image-rendering="optimizeQuality" shape-rendering="geometricPrecision" text-rendering="geometricPrecision" viewBox="0 0 6.72 6.72" width="256" height="256"><defs><clipPath id="a"><path d="M1.16 0h4.4c.638 0 1.16.522 1.16 1.16v4.4c0 .638-.522 1.16-1.16 1.16h-4.4C.522 6.72 0 6.198 0 5.56v-4.4C0 .522.522 0 1.16 0z" fill="#000000" class="color000 svgShape"></path></clipPath></defs><path fill="#c2185b" d="M1.16 0h4.4c.638 0 1.16.522 1.16 1.16v4.4c0 .638-.522 1.16-1.16 1.16h-4.4C.522 6.72 0 6.198 0 5.56v-4.4C0 .522.522 0 1.16 0z" class="colorc2185b svgShape"></path><g clip-path="url(#a)"><path fill="#a1184e" d="M5.36 2.072 9.146 5.86l-1.24 1.24L4.12 3.311z" class="colora1184e svgShape"></path><path fill="#a1184e" d="M4.12 3.312l3.786 3.786-.047.048L4.072 3.36zM5.36 4.648l3.786 3.786-.712.712L4.648 5.36zM3.36 4.072L7.146 7.86l-.048.047L3.312 4.12z" class="colora1184e svgShape"></path><path fill="#a1184e" d="m3.312 4.12 3.786 3.786-1.24 1.24L2.073 5.36z" class="colora1184e svgShape"></path><path fill="#a1184e" d="m4.648 1.36.712.712-1.24 1.24-.048.048.048.048 1.24 1.24-.712.712-1.24-1.24-.048-.048-.048.048-1.24 1.24-.712-.712 1.24-1.24.048-.048-.048-.048-1.24-1.24.712-.712 1.24 1.24.048.048.048-.048z" class="colora1184e svgShape"></path></g><path fill="none" d="M1.16 0h4.4c.638 0 1.16.522 1.16 1.16v4.4c0 .638-.522 1.16-1.16 1.16h-4.4C.522 6.72 0 6.198 0 5.56v-4.4C0 .522.522 0 1.16 0z"></path><path fill="#fffffe" d="m4.12 3.312 1.24-1.24-.712-.712-1.24 1.24-.048.048-.048-.048-1.24-1.24-.712.712 1.24 1.24.048.048-.048.048-1.24 1.24.712.712 1.24-1.24.048-.048.048.048 1.24 1.24.712-.712-1.24-1.24-.048-.048z" class="colorfffffe svgShape"></path></svg>