<svg xmlns="http://www.w3.org/2000/svg" viewBox="0 0 66 66" id="loan"><path d="M64.3 43.5c-.9-1.9-3-2.7-4.9-1.7l-.7.5V30.4c0-7.4-5.5-13.5-12.6-14.5.3-.4.5-1 .5-1.5 0-1.2-.7-2.2-1.7-2.6L48 4.9c.2-.3 0-.7-.2-.9l-4-2.8c-.2-.2-.6-.2-.8-.1l-4.2 2.6L35 1.1c-.3-.2-.6-.2-.8 0L29.9 4c-.3.2-.4.6-.3.9l3.2 6.8c-1 .5-1.7 1.5-1.7 2.6 0 .6.2 1.1.5 1.5-7.1 1-12.6 7.1-12.6 14.5v9.2c-1 .1-1.8.3-2.4.4v-2.1c0-.4-.3-.8-.8-.8H2.1c-.4 0-.8.3-.8.8V62c0 .4.3.8.8.8h13.7c.4 0 .8-.3.8-.8v-1.6c2.2-.1 4-.3 6.5.6l10 3.6c2.1.7 4.2.4 6-.7l9.4-5.9 14.3-9.4c1.7-.9 2.4-3.2 1.5-5.1zM15 61.2H2.8V38.6H15v22.6zM31.2 4.9l3.3-2.2 3.8 2.6c.2.2.6.2.8 0l4.2-2.6 3.1 2.2-3.1 6.6h-9l-3.1-6.6zM34 13h9.7c.8 0 1.4.6 1.4 1.4 0 .8-.6 1.4-1.4 1.4H34c-.8 0-1.4-.6-1.4-1.4 0-.8.6-1.4 1.4-1.4zM20.4 30.4c0-7.2 5.9-13.1 13.1-13.1h10.6c7.2 0 13.1 5.9 13.1 13.1v12.9c-7.5 4.8-4.5 2.9-13.9 9-1.1.7-.9.5-12.5.5-.7 0-.7-1.2-.4-1.6.2-.2.5-.3.9-.3h10.2c2 0 3.6-1.7 3.6-3.9 0-2.1-1.6-3.9-3.6-3.9-17.9 0-7.8.4-14.6-2.7-2-.9-4.3-1.1-6.5-.9v-9.1zm41.6 17-14.4 9.4-9.4 5.9c-1.4.9-3.1 1.1-4.7.5l-10-3.6c-2.9-1-5-.8-7-.7V41.5c11.3-2.9 11.1 3 14.3 3h10.7c1.1 0 2.1 1.1 2.1 2.4 0 1.3-.9 2.4-2.1 2.4-10.9 0-11.3-.3-12.2.8-.6.8-.7 2.1-.4 2.8.3.8 1 1.3 1.9 1.3 10.8 0 11.7.3 13.3-.7 1.9-1.2 3-1.9 3.4-2.2-1.8 1.2-11.4 7.4 12.7-8.2 1-.6 2.2-.1 2.7 1 .6 1.2.2 2.7-.9 3.3zm-14.3 3.7c.1 0 .1 0 0 0zm0 .1c-.1 0-.1 0 0 0-.1 0-.1 0 0 0z"></path><path d="M35.7 36.5 34.5 38c1.2 1 2.5 1.6 4 1.8V41h1v-1.2c1.1-.1 2-.4 2.6-1 .7-.6 1-1.4 1-2.3 0-.9-.3-1.7-.9-2.1-.6-.5-1.5-.9-2.7-1.2v-3c.8.1 1.6.4 2.3.9l1-1.5c-1.1-.7-2.2-1.1-3.3-1.2v-.8h-1v.8c-1 .1-1.9.4-2.5 1-.6.6-1 1.3-1 2.3 0 .9.3 1.6.8 2.1.6.5 1.5.9 2.7 1.1V38c-1-.2-1.9-.7-2.8-1.5zm3.8-1.4c.6.2 1.1.4 1.3.6.2.2.4.5.4.9s-.2.7-.5.9c-.3.2-.7.4-1.2.5v-2.9zm-2.3-2.9c-.2-.2-.3-.5-.3-.9s.1-.7.4-.9c.3-.2.7-.4 1.1-.4v2.8c-.5-.1-.9-.3-1.2-.6z"></path></svg>