<svg xmlns="http://www.w3.org/2000/svg" enable-background="new 0 0 512 512" viewBox="0 0 512 512" width="256" height="256"><path fill="#f1edec" fill-rule="evenodd" d="M15.484-0.001h327.204c8.528,0,15.483,6.956,15.483,15.484c0,160.345,0,320.689,0,481.034
			c0,8.528-6.955,15.484-15.483,15.484H15.484C6.955,512.001,0,505.045,0,496.517V15.483C0,6.955,6.955-0.001,15.484-0.001z" clip-rule="evenodd" class="coloreceff1 svgShape"></path><path fill="#d6d2d1" fill-rule="evenodd" d="M179.086-0.001h163.602c8.528,0,15.483,6.956,15.483,15.484c0,160.345,0,320.689,0,481.034
			c0,8.528-6.955,15.484-15.483,15.484H179.086V-0.001z" clip-rule="evenodd" class="colord1d1d6 svgShape"></path><path fill="#a79d9b" fill-rule="evenodd" d="M49.212,280.648c-4.56,0-8.258-3.698-8.258-8.258c0-4.56,3.698-8.258,8.258-8.258h111.721
			c4.561,0,8.258,3.698,8.258,8.258c0,4.561-3.697,8.258-8.258,8.258H49.212L49.212,280.648z M49.212,392.133
			c-4.56,0-8.258-3.697-8.258-8.258s3.698-8.258,8.258-8.258h111.721c4.561,0,8.258,3.698,8.258,8.258s-3.697,8.258-8.258,8.258
			H49.212L49.212,392.133z M49.212,447.876c-4.56,0-8.258-3.698-8.258-8.258c0-4.56,3.698-8.258,8.258-8.258h111.721
			c4.561,0,8.258,3.697,8.258,8.258c0,4.561-3.697,8.258-8.258,8.258H49.212L49.212,447.876z M49.212,336.39
			c-4.56,0-8.258-3.698-8.258-8.258c0-4.561,3.698-8.258,8.258-8.258h111.721c4.561,0,8.258,3.698,8.258,8.258
			c0,4.56-3.697,8.258-8.258,8.258H49.212z" clip-rule="evenodd" class="colora79ba7 svgShape"></path><path fill="#ff8066" fill-rule="evenodd" d="M49.212,171.8c-4.56,0-8.258-3.697-8.258-8.258c0-4.561,3.697-8.258,8.258-8.258h21.061
			c5.596,0,10.778-1.541,15.525-4.611c5.104-3.3,9.893-8.431,14.343-15.379l14.434-22.531l-14.434-22.531
			c-4.451-6.948-9.239-12.079-14.343-15.38c-4.747-3.069-9.929-4.611-15.525-4.611H49.212c-4.56,0-8.258-3.697-8.258-8.258
			s3.697-8.258,8.258-8.258h21.061c8.738,0,16.891,2.447,24.428,7.32c7.18,4.643,13.627,11.41,19.312,20.283l10.35,16.157
			l10.35-16.157c5.699-8.897,12.136-15.664,19.279-20.283c0.173-0.112,0.349-0.217,0.527-0.315
			c7.399-4.664,15.387-7.006,23.934-7.006h26.308l-12.1-12.1c-3.224-3.224-3.224-8.453,0-11.677c3.225-3.225,8.453-3.225,11.678,0
			l26.197,26.197c3.224,3.225,3.224,8.453,0,11.677l-26.197,26.197c-3.225,3.225-8.453,3.225-11.678,0
			c-3.224-3.224-3.224-8.453,0-11.677l12.1-12.1h-26.308c-5.436,0-10.481,1.455-15.117,4.352c-0.122,0.089-0.247,0.176-0.376,0.259
			c-5.141,3.324-9.94,8.456-14.376,15.38l-14.434,22.531l14.434,22.531c4.451,6.948,9.24,12.079,14.344,15.379l0.023,0.015
			l0.01-0.015c4.747,3.069,9.918,4.611,15.492,4.611h26.308l-12.1-12.1c-3.224-3.225-3.224-8.453,0-11.678
			c3.225-3.224,8.453-3.224,11.678,0l26.197,26.197c3.224,3.225,3.224,8.453,0,11.678l-26.197,26.197
			c-3.225,3.224-8.453,3.224-11.678,0c-3.224-3.225-3.224-8.453,0-11.678l12.1-12.1h-26.308c-8.759,0-16.923-2.447-24.46-7.32
			l0.01-0.015c-7.171-4.642-13.611-11.405-19.289-20.268l-10.35-16.157l-10.35,16.157c-5.684,8.873-12.131,15.64-19.312,20.283
			c-7.537,4.874-15.69,7.32-24.428,7.32H49.212z" clip-rule="evenodd" class="colorffd944 svgShape"></path><path fill="#ff3107" fill-rule="evenodd" d="M179.086,53.726h25.675l-12.1-12.1c-3.224-3.224-3.224-8.453,0-11.677c3.225-3.225,8.453-3.225,11.678,0
			l26.197,26.197c3.224,3.225,3.224,8.453,0,11.677l-26.197,26.197c-3.225,3.225-8.453,3.225-11.678,0
			c-3.224-3.224-3.224-8.453,0-11.677l12.1-12.1h-25.675V53.726L179.086,53.726z M179.086,155.285h25.675l-12.1-12.1
			c-3.224-3.225-3.224-8.453,0-11.678c3.225-3.224,8.453-3.224,11.678,0l26.197,26.197c3.224,3.225,3.224,8.453,0,11.678
			l-26.197,26.197c-3.225,3.224-8.453,3.224-11.678,0c-3.224-3.225-3.224-8.453,0-11.678l12.1-12.1h-25.675V155.285z" clip-rule="evenodd" class="colorffc107 svgShape"></path><path fill="#f1edec" fill-rule="evenodd" d="M488.888,254.136c12.712,0,23.112,9.507,23.112,21.122v215.62c0,11.616-10.401,21.122-23.112,21.122H233.259
			c-12.711,0-23.113-9.505-23.113-21.122v-215.62c0-11.617,10.401-21.122,23.113-21.122H488.888z" clip-rule="evenodd" class="coloreceff1 svgShape"></path><path fill="#d6d2d1" fill-rule="evenodd" d="M488.888,254.136c12.712,0,23.112,9.507,23.112,21.122v215.62c0,11.616-10.401,21.122-23.112,21.122H361.073
			V254.136H488.888z" clip-rule="evenodd" class="colord1d1d6 svgShape"></path><path fill="#fe9e8a" fill-rule="evenodd" d="M210.147,313.714H512v-38.456c0-11.615-10.4-21.122-23.112-21.122H233.259
			c-12.712,0-23.113,9.505-23.113,21.122V313.714z" clip-rule="evenodd" class="color8ac9fe svgShape"></path><path fill="#ff7b60" fill-rule="evenodd" d="M361.073,313.714H512v-38.457c0-11.614-10.4-21.122-23.112-21.122H361.073V313.714z" clip-rule="evenodd" class="color60b7ff svgShape"></path><path fill="#8f8380" fill-rule="evenodd" d="M443.128,230.819h11.232c5.558,0,10.105,4.548,10.105,10.106v32.567c0,5.559-4.547,10.106-10.105,10.106
			h-11.232c-5.558,0-10.106-4.547-10.106-10.106v-32.567C433.022,235.366,437.57,230.819,443.128,230.819L443.128,230.819z
			 M355.459,230.819h11.231c5.558,0,10.105,4.548,10.105,10.106v32.567c0,5.559-4.548,10.106-10.105,10.106h-11.231
			c-5.559,0-10.107-4.547-10.107-10.106v-32.567C345.352,235.366,349.9,230.819,355.459,230.819L355.459,230.819z M263.177,230.819
			h11.231c5.558,0,10.105,4.548,10.105,10.106v32.567c0,5.559-4.548,10.106-10.105,10.106h-11.231
			c-5.559,0-10.107-4.547-10.107-10.106v-32.567C253.07,235.366,257.617,230.819,263.177,230.819z" clip-rule="evenodd" class="color8f808f svgShape"></path><path fill="#68605e" fill-rule="evenodd" d="M361.074,230.819h5.615c5.558,0,10.106,4.548,10.106,10.106v32.568c0,5.558-4.548,10.106-10.106,10.106
			h-5.615V230.819L361.074,230.819z M448.744,230.819h5.615c5.558,0,10.105,4.548,10.105,10.106v32.568
			c0,5.558-4.548,10.106-10.105,10.106h-5.615V230.819L448.744,230.819z M268.792,230.819h5.616c5.558,0,10.105,4.548,10.105,10.106
			v32.568c0,5.558-4.548,10.106-10.105,10.106h-5.616V230.819z" clip-rule="evenodd" class="color685e68 svgShape"></path><path fill="#ff8066" fill-rule="evenodd" d="M266.184,355.529h32.035c2.843,0,5.161,2.319,5.161,5.161v32.035c0,2.842-2.319,5.161-5.161,5.161h-32.035
			c-2.843,0-5.161-2.318-5.161-5.161V360.69C261.023,357.847,263.342,355.529,266.184,355.529L266.184,355.529z M345.056,355.529
			h32.035c2.843,0,5.161,2.319,5.161,5.161v32.035c0,2.842-2.318,5.161-5.161,5.161h-32.035c-2.843,0-5.161-2.318-5.161-5.161
			V360.69C339.895,357.847,342.213,355.529,345.056,355.529L345.056,355.529z M423.927,355.529h32.035
			c2.843,0,5.161,2.319,5.161,5.161v32.035c0,2.842-2.318,5.161-5.161,5.161h-32.035c-2.843,0-5.161-2.318-5.161-5.161V360.69
			C418.766,357.847,421.085,355.529,423.927,355.529L423.927,355.529z M423.927,427.828h32.035c2.843,0,5.161,2.318,5.161,5.161
			v32.035c0,2.843-2.318,5.161-5.161,5.161h-32.035c-2.843,0-5.161-2.318-5.161-5.161v-32.035
			C418.766,430.146,421.085,427.828,423.927,427.828L423.927,427.828z M345.056,427.828h32.035c2.843,0,5.161,2.318,5.161,5.161
			v32.035c0,2.843-2.318,5.161-5.161,5.161h-32.035c-2.843,0-5.161-2.318-5.161-5.161v-32.035
			C339.895,430.146,342.213,427.828,345.056,427.828L345.056,427.828z M266.184,427.828h32.035c2.843,0,5.161,2.318,5.161,5.161
			v32.035c0,2.843-2.319,5.161-5.161,5.161h-32.035c-2.843,0-5.161-2.318-5.161-5.161v-32.035
			C261.023,430.146,263.342,427.828,266.184,427.828z" clip-rule="evenodd" class="colorffd944 svgShape"></path><path fill="#ff3107" fill-rule="evenodd" d="M282.202,427.828h16.017c2.843,0,5.161,2.318,5.161,5.161v32.035c0,2.843-2.318,5.161-5.161,5.161h-16.017
			V427.828L282.202,427.828z M282.202,355.529h16.017c2.843,0,5.161,2.319,5.161,5.161v32.035c0,2.842-2.318,5.161-5.161,5.161
			h-16.017V355.529L282.202,355.529z M361.073,355.529h16.017c2.843,0,5.161,2.319,5.161,5.161v32.035
			c0,2.842-2.318,5.161-5.161,5.161h-16.017V355.529L361.073,355.529z M439.945,355.529h16.018c2.843,0,5.161,2.319,5.161,5.161
			v32.035c0,2.842-2.318,5.161-5.161,5.161h-16.018V355.529L439.945,355.529z M439.945,427.828h16.018
			c2.843,0,5.161,2.318,5.161,5.161v32.035c0,2.843-2.318,5.161-5.161,5.161h-16.018V427.828L439.945,427.828z M361.073,427.828
			h16.017c2.843,0,5.161,2.318,5.161,5.161v32.035c0,2.843-2.318,5.161-5.161,5.161h-16.017V427.828z" clip-rule="evenodd" class="colorffc107 svgShape"></path></svg>