<svg id="SvgjsSvg1011" width="256" height="256" xmlns="http://www.w3.org/2000/svg" version="1.1" xmlns:xlink="http://www.w3.org/1999/xlink" xmlns:svgjs="http://svgjs.com/svgjs"><defs id="SvgjsDefs1012"></defs><g id="SvgjsG1013"><svg xmlns="http://www.w3.org/2000/svg" viewBox="57 125.7 710.8 590.2" width="256" height="256"><path d="M761.4 405.2 648.7 292.5c-8.6-8.6-22.6-8.6-31.2 0-8.6 8.6-8.6 22.6 0 31.2l75 75H488.6v-251c0-12.2-9.9-22.1-22.1-22.1s-22.1 9.9-22.1 22.1v546.1c0 12.2 9.9 22.1 22.1 22.1s22.1-9.9 22.1-22.1v-251h203.9l-75 75c-8.6 8.6-8.6 22.6 0 31.2 4.3 4.3 10 6.5 15.6 6.5s11.3-2.2 15.6-6.5l112.7-112.7c4.1-4.1 6.5-9.8 6.5-15.6-.1-5.8-2.4-11.4-6.5-15.5zM354.6 125.7c-12.2 0-22.1 9.9-22.1 22.1v251H132.3l75-75c8.6-8.6 8.6-22.6 0-31.2s-22.6-8.6-31.2 0L63.5 405.2c-4.1 4.1-6.5 9.8-6.5 15.6 0 5.9 2.3 11.5 6.5 15.6L176.1 549c4.3 4.3 10 6.5 15.6 6.5s11.3-2.2 15.6-6.5c8.6-8.6 8.6-22.6 0-31.2l-75-75h200.2v251c0 12.2 9.9 22.1 22.1 22.1s22.1-9.9 22.1-22.1V147.7c0-12.2-9.9-22-22.1-22z" fill="#000000" class="color000 svgShape"></path></svg></g></svg>