<svg xmlns="http://www.w3.org/2000/svg" enable-background="new 0 0 135 135" viewBox="0 0 135 135" width="40" height="40"><path fill="#5b58cf" d="M103.02856,25.18958v98.47439c0,4.3316-3.50463,7.83623-7.82638,7.83623H17.22557
				c-4.3316,0-7.83623-3.50463-7.83623-7.83623V25.18958c0-4.32174,3.50463-7.82638,7.83623-7.82638h77.97661
				C99.52393,17.3632,103.02856,20.86784,103.02856,25.18958z" class="color5b58cf svgShape"></path><path fill="#a3baf2" d="M110.72926,25.18893v98.47439c0,4.3316-3.50464,7.83623-7.82639,7.83623H24.92627
				c-4.3316,0-7.83623-3.50463-7.83623-7.83623V25.18893c0-4.32174,3.50463-7.82638,7.83623-7.82638h77.97661
				C107.22462,17.36255,110.72926,20.86718,110.72926,25.18893z" class="colora3baf2 svgShape"></path><path fill="#ffffff" d="M25.23227,118.49969V30.35907c0-2.20914,1.79086-4,4-4h67.64209c2.20914,0,4,1.79086,4,4v88.14063
				c0,2.20914-1.79086,4-4,4H29.23227C27.02313,122.49969,25.23227,120.70883,25.23227,118.49969z" class="colorfff svgShape"></path><path fill="#a2e55a" d="M89.24445,15.24467v15.40208c0,1.54559-1.26012,2.80572-2.80566,2.80572H41.38056
					c-1.54559,0-2.80571-1.26012-2.80571-2.80572V15.24467c0-1.54559,1.26012-2.80572,2.80571-2.80572h13.2802
					c0.16734-4.9616,4.24297-8.93875,9.24399-8.93875c5.01081,0,9.07659,3.97715,9.24399,8.93875H86.4388
					C87.98433,12.43895,89.24445,13.69908,89.24445,15.24467z" class="colora2e55a svgShape"></path><path fill="#ffffff" d="M66.99309 11.68063c0 1.70134-1.38475 3.0762-3.0861 3.0762-1.70128 0-3.07619-1.37485-3.07619-3.0762 0-1.70128 1.37491-3.0762 3.07619-3.0762C65.60834 8.60443 66.99309 9.97935 66.99309 11.68063zM49.67517 80.97559c0-7.44224 6.05096-13.49713 13.48936-13.50518v-6.65364C52.03561 60.82559 43.02 69.84541 43.02 80.97674c0 5.55128 2.25534 10.58244 5.90224 14.22627l4.70811-4.70821C51.18803 88.05497 49.67517 84.68807 49.67517 80.97559z" class="colorfff svgShape"></path><path fill="#ffffff" d="M63.1792 94.45181c-3.72524 0-7.10307-1.51373-9.54885-3.95701l-4.70811 4.70821c3.64834 3.64517 8.68919 5.90224 14.2583 5.90224 5.55214 0 10.58427-2.2561 14.22839-5.90032l-4.70496-4.70495C70.26367 92.94038 66.89457 94.45181 63.1792 94.45181zM63.18055 60.816c-.00537 0-.01064.00077-.01601.00077v6.65364c.00499 0 .00969-.00077.01467-.00077 7.43054 0 13.47632 6.05873 13.47632 13.50595 0 3.71517-1.51142 7.08418-3.95155 9.52439l4.70496 4.70495c3.64411-3.64383 5.90012-8.67615 5.90012-14.22819C83.30906 69.84004 74.28483 60.816 63.18055 60.816z" class="colorfff svgShape"></path><path fill="#fad014" d="M49.67517,80.97559c0-7.44224,6.05096-13.49713,13.48936-13.50518v-6.65364
					C52.03561,60.82559,43.02,69.84541,43.02,80.97674c0,5.55128,2.25534,10.58244,5.90224,14.22627l4.70811-4.70821
					C51.18803,88.05497,49.67517,84.68807,49.67517,80.97559z" class="colorfad014 svgShape"></path><path fill="#fb961d" d="M63.1792,94.45181c-3.72524,0-7.10307-1.51373-9.54885-3.95701l-4.70811,4.70821
					c3.64834,3.64517,8.68919,5.90224,14.2583,5.90224c5.55214,0,10.58427-2.2561,14.22839-5.90032l-4.70496-4.70495
					C70.26367,92.94038,66.89457,94.45181,63.1792,94.45181z" class="colorfb961d svgShape"></path><path fill="#e2f2ff" d="M63.18055,60.816c-0.00537,0-0.01064,0.00077-0.01601,0.00077v6.65364
					c0.00499,0,0.00969-0.00077,0.01467-0.00077c7.43054,0,13.47632,6.05873,13.47632,13.50595
					c0,3.71517-1.51142,7.08418-3.95155,9.52439l4.70496,4.70495c3.64411-3.64383,5.90012-8.67615,5.90012-14.22819
					C83.30906,69.84004,74.28483,60.816,63.18055,60.816z" class="colore2f2ff svgShape"></path><path fill="#a2e55a" d="M108.80032,65.11443c-8.86422-9.79743-23.95955-10.55696-33.7583-1.67529
					c-9.76909,8.84019-10.53868,23.95234-1.657,33.75092c8.84076,9.76038,23.96229,10.52197,33.73204,1.67324
					C116.91514,89.99017,117.65854,74.87596,108.80032,65.11443z M103.2009,94.39643l-0.06667,0.065
					c-3.54996,3.21414-8.13751,4.85163-12.93839,4.60766c-4.7841-0.23386-9.19515-2.31187-12.40033-5.86113
					c-6.62265-7.30861-6.09488-18.65755,1.16272-25.30196c3.63474-3.28632,8.23241-4.94062,13.01585-4.69823
					c4.79211,0.24329,9.20248,2.33006,12.42447,5.88943C111.01246,76.40514,110.47729,87.7361,103.2009,94.39643z" class="colora2e55a svgShape"></path><path fill="#e2f2ff" d="M109.62973,96.33307l4.58646,5.06495l-5.25422,4.75784l-4.58646-5.06495
					c0.94252-0.68468,1.86285-1.41677,2.75576-2.22533C108.02412,98.05709,108.85518,97.20325,109.62973,96.33307z" class="colore2f2ff svgShape"></path><path fill="#fad014" d="M128.64926,122.63704c-1.31567,1.18972-3.00181,1.71739-4.64526,1.58874
					c-1.52985-0.11976-3.00722-0.79823-4.11591-2.0285l-10.16029-11.21802l-1.90243-2.10152
					c-0.46134-0.51111-0.42531-1.30882,0.09517-1.77808l7.33693-6.64701c0.5111-0.46118,1.30865-0.42516,1.77807,0.09538
					l2.33894,2.59309l9.71507,10.72578C131.38817,116.41302,131.19524,120.33832,128.64926,122.63704z" class="colorfad014 svgShape"></path><path fill="#f4f4f4" d="M119.3745,103.14112c-0.47815,0.49017-0.93081,0.99136-1.3483,1.38085
					c-2.58775,2.38328-5.21188,4.78153-8.29838,6.45729l-1.90243-2.10152c-0.46134-0.51111-0.42531-1.30882,0.09517-1.77808
					l7.33693-6.64701c0.5111-0.46118,1.30865-0.42516,1.77807,0.09538L119.3745,103.14112z" class="colorf4f4f4 svgShape"></path><path fill="#402da3" d="M63.9047 15.75977c2.26001 0 4.09003-1.83008 4.09003-4.08008S66.16471 7.6001 63.9047 7.6001c-2.25 0-4.07001 1.82959-4.07001 4.07959S61.6547 15.75977 63.9047 15.75977zM63.9047 9.6001c1.15002 0 2.09003.93994 2.09003 2.07959 0 1.14014-.94 2.08008-2.09003 2.08008-1.14001 0-2.07001-.93994-2.07001-2.08008C61.83469 10.54004 62.76469 9.6001 63.9047 9.6001zM34.70469 52.81982c0 .90951.99216 1.37225 1.70001.8999.17999-.11963.32001-.27979.41998-.48975l1.14001-2.74023h5.97003c.9641 1.87407.91942 3.41016 2.16998 3.41016.6706 0 1.08002-.49397 1.08002-1.08008 0-.14014-.03003-.29004-.11005-.46973L42.3447 41.17969c-.5068-1.19697-2.23044-1.27137-2.79999.01025C34.68217 52.73315 34.70469 52.44046 34.70469 52.81982zM40.94474 43.32959l2.12994 5.12012h-4.25L40.94474 43.32959zM54.07468 54c1.82059 0 3.65988-.75545 4.75-2.37012.55005-.79004.83002-1.77979.83002-2.93018v-7.31982c0-.31006-.10999-.56982-.33002-.77979-.42999-.44043-1.13995-.44043-1.54999 0-.20996.20996-.31.46973-.31.77979v7.37988c0 .68994-.15997 1.28027-.46997 1.75-1.31692 1.97525-4.60728 1.8932-5.83002 0-.31-.46973-.46997-1.06006-.46997-1.75v-7.37988c0-.31006-.11005-.56982-.32001-.77979-.44-.44043-1.14001-.44043-1.56 0-.21002.20996-.31.47949-.31.77979v7.31982c0 1.15039.27997 2.14014.81995 2.93018C50.42622 53.23158 52.2423 54 54.07468 54zM63.73472 40.36963c-.59782 0-1.08002.47171-1.08002 1.1001v11.26025c0 .61594.46331 1.08008 1.08002 1.08008h3.72998c4.37062 0 6.79999-3.26562 6.79999-6.72021 0-2.20878-.99108-4.41225-3.06995-5.75h-.01001c-1.01001-.6499-2.27002-.97021-3.72003-.97021H63.73472zM72.0947 47.08984c0 2.68653-1.84451 4.64014-4.83002 4.64014H64.8447v-9.29004h2.41998C70.24648 42.43994 72.0947 44.38528 72.0947 47.08984zM77.64469 53.8999c.61263 0 1.11005-.47195 1.11005-1.08008V41.37988c0-.31006-.11005-.56982-.33002-.77979-.42999-.44043-1.14001-.44043-1.54999 0-.21002.20996-.31.47949-.31.77979v11.43994C76.56474 53.43577 77.02798 53.8999 77.64469 53.8999zM81.33469 42.43994h3.53003v10.37988c0 .57328.4455 1.08008 1.08997 1.08008.58794 0 1.10004-.43753 1.10004-1.08008V42.43994h3.51996c.63674 0 1.05005-.48719 1.05005-1.03027 0-.54399-.42989-1.04004-1.05005-1.04004h-9.23999c-.62105 0-1.02997.49728-1.02997 1.04004C80.30473 42.00624 80.75761 42.43994 81.33469 42.43994zM35.74473 110.7998c0 .55029.45001 1 1 1h52.83997c.54999 0 1-.44971 1-1 0-.5498-.45001-1-1-1H36.74473C36.19474 109.7998 35.74473 110.25 35.74473 110.7998zM92.0247 62.20996c-5.70702-.29601-11.07824 2.04932-14.69 5.8999-11.08453 11.57667-3.38918 31.17446 12.81 31.95996 12.99877.78854 23.03697-11.98831 18.98004-24.72998C106.81318 68.05516 100.14383 62.61923 92.0247 62.20996zM74.81474 76.45996c.53998 1.3999.83997 2.92969.83997 4.52002 0 1.62012-.31 3.19971-.89996 4.65967C73.93473 82.62988 73.95469 79.44971 74.81474 76.45996zM75.79472 73.85986c.70001-1.50977 1.64001-2.91992 2.82001-4.18994 2.32001 3.16992 3.69 7.08008 3.69 11.31006 0 4.19971-1.35004 8.18994-3.83002 11.47998-1.15997-1.29004-2.09003-2.72021-2.77002-4.22021 1.27002-2.18994 1.95001-4.66992 1.95001-7.25977C77.6547 78.38965 76.97471 75.95996 75.79472 73.85986zM90.24473 98.06982c-3.88-.18994-7.48999-1.66016-10.35004-4.18994 2.86005-3.68018 4.41003-8.18018 4.41003-12.8999 0-4.77002-1.58002-9.16016-4.23999-12.7002 3.49239-2.97766 7.92392-4.34151 11.85999-4.06982 2.84998.14014 5.57001.97998 7.95001 2.42969V95.6499C97.00474 97.3999 93.68473 98.25 90.24473 98.06982zM104.0247 70.19971c5.74725 6.77313 5.34383 17.12354-1.5 23.45996-.10025.10035-.15997.16013-.06.06006-.15002.13969-.52852.46104-.58997.51025V68.06006C102.30813 68.49187 102.74657 68.71223 104.0247 70.19971z" class="color402da3 svgShape"></path><path fill="#402da3" d="M129.82469,113.19971l-9.57996-10.58984l-2.47003-2.74023c-0.83997-0.91992-2.26996-0.98975-3.19-0.15967
					l-0.29999,0.27002l-3.40002-3.75c3.05005-3.95996,4.82001-8.76025,5.07001-13.86035
					c0.33002-6.63965-1.94995-13.00977-6.40997-17.92969c-1.63-1.80029-3.48999-3.33984-5.52002-4.57031
					c-0.91035-0.56011-1.97532-1.08973-2.14996-1.15967v-28.3501c0-2.75977-2.24005-5-5-5h-6.63v-7c4.61285,0,9.85199,0,11.79999,0
					c3.77002,0,6.83002,3.06006,6.83002,6.83008v26.54004c0,0.5498,0.44995,1,1,1c0.54999,0,1-0.4502,1-1V25.18994
					c0-4.87012-3.96002-8.83008-8.83002-8.83008c-4.17859,0-7.55901,0-11.79999,0v-1.12012c0-2.08984-1.71002-3.7998-3.81-3.7998
					H74.07468C73.42472,6.35986,69.13468,2.5,63.9047,2.5s-9.52002,3.85986-10.16998,8.93994H41.38468
					c-2.09998,0-3.81,1.70996-3.81,3.7998v1.12012H24.06474h-6.84003c-4.87,0-8.84003,3.95996-8.84003,8.83008v98.46973
					c0,4.88037,3.97003,8.84033,8.84003,8.84033h6.84003c14.3317,0,72.98564,0,77.97998,0c4.87,0,8.83002-3.95996,8.83002-8.84033
					v-9.91992l8.26996,9.12988c2.70123,2.99466,7.26879,3.13901,10.18,0.51025
					C132.2747,120.70996,132.49474,116.13965,129.82469,113.19971z M115.92472,101.19971
					c0.04999-0.0498,0.10999-0.06982,0.17999-0.06982s0.14001,0.02979,0.19,0.08984l1.79999,1.99023l-7.21997,6.5498l-0.5,0.4502
					c-0.09275-0.10249-1.92497-2.12704-1.81-2c-0.07954-0.11174-0.0874-0.26265,0.01996-0.37012
					C109.46535,107.07155,115.14237,101.91104,115.92472,101.19971z M112.80473,101.32959
					c-0.10139,0.09171-4.01803,3.63449-3.77002,3.41016l-0.15997-0.17969l-3.02002-3.33008
					c1.76348-1.35525,2.7456-2.34572,3.77002-3.41016l1.25,1.37988L112.80473,101.32959z M113.95469,82.27979
					c-0.62082,12.62564-11.36942,22.35207-24,21.72998c-12.77681-0.64008-22.3713-11.52669-21.72998-24
					c0.61575-12.35542,10.82706-21.77002,22.84003-21.77002c0.38,0,0.76996,0.01025,1.15997,0.03027
					C104.71029,58.87739,114.60169,69.52779,113.95469,82.27979z M72.70469,64.35986c-1.07001,1.16016-2.01996,2.41992-2.83997,3.75
					c-1.73004-0.8999-3.65002-1.47021-5.70001-1.60986v-4.66016C67.26469,62,70.16471,62.8999,72.70469,64.35986z
					 M68.88468,69.85986c-1.56995,3.08008-2.47998,6.49023-2.65997,10.0498c-0.21002,4.29004,0.65997,8.47021,2.52002,12.22021
					C67.03471,93,65.14469,93.44971,63.17472,93.44971c-3.33002,0-6.47003-1.2998-8.84003-3.65967
					c-2.35999-2.36035-3.65997-5.49023-3.65997-8.81006c0-6.89014,5.59998-12.5,12.48999-12.51025h0.01001
					C65.23472,68.46973,67.17472,68.96973,68.88468,69.85986z M62.16471,66.50977
					c-7.52002,0.52002-13.48999,6.81006-13.48999,14.47021c0,3.52002,1.26001,6.84961,3.56,9.48975l-3.27362,3.28369
					l-0.01636,0.0166C45.75474,90.25,44.0247,85.75,44.0247,80.97998c0-10.22021,8.04999-18.61035,18.14001-19.14014V66.50977z
					 M53.6547,91.87988c2.64001,2.31006,5.98999,3.56982,9.52002,3.56982c2.31,0,4.52997-0.54004,6.52997-1.5498
					c0.80005,1.33984,1.73004,2.60986,2.79004,3.79004c-2.82001,1.58008-6,2.41992-9.31,2.41992
					c-4.79004,0-9.30005-1.75-12.83002-4.93018L53.6547,91.87988z M39.57468,15.23975c0-0.98975,0.81-1.7998,1.81-1.7998h13.28003
					c0.53998,0,0.97998-0.43018,1-0.97021C55.81474,8,59.43473,4.5,63.9047,4.5c4.47003,0,8.09003,3.5,8.23999,7.96973
					c0.02002,0.54004,0.46002,0.97021,1,0.97021h13.29004c1,0,1.81,0.81006,1.81,1.7998c0,5.6512,0,12.83655,0,15.41016
					c0,0.5498,0.45001,1,1,1s1-0.4502,1-1v-3.29004h6.63c1.64996,0,3,1.33984,3,3V57.8501
					c-2.39001-0.91016-4.92999-1.44043-7.55005-1.57031c-6.63995-0.31982-13.01996,1.9502-17.94995,6.41992
					c-0.07001,0.07031-0.14001,0.12988-0.21002,0.2002c-3.20001-1.9502-6.96002-3.08008-10.97998-3.08008h-0.02002
					c-11.65997,0.00977-21.14001,9.5-21.14001,21.16016c0,11.66448,9.47131,21.12988,21.16003,21.12988
					c3.83997,0,7.52997-1.02002,10.75-2.93994c4.31,4.12988,9.89996,6.52979,15.91998,6.83008
					c2.91978,0.20707,6.62056-0.25667,10.02002-1.55029V118.5c0,1.6499-1.35004,3-3,3H29.23472c-1.66003,0-3-1.3501-3-3V30.35986
					c0-1.66016,1.33997-3,3-3h8.33996v3.29004c0,0.5498,0.45001,1,1,1c0.55005,0,1-0.4502,1-1
					C39.57468,19.72861,39.57468,21.70239,39.57468,15.23975z M17.22471,130.5c-3.77002,0-6.84003-3.07031-6.84003-6.84033V25.18994
					c0-3.76025,3.07001-6.83008,6.84003-6.83008h1.26001c-1.97998,1.60986-3.25,4.08008-3.25,6.83008v98.46973
					c0,2.76025,1.27002,5.22021,3.25,6.84033H17.22471z M108.87473,123.65967c0,3.77002-3.06,6.84033-6.83002,6.84033h-1.27002
					H24.06474c-3.77002,0-6.83002-3.07031-6.83002-6.84033V25.18994c0-3.77002,3.06-6.83008,6.83002-6.83008h13.50995v7h-8.33996
					c-2.76001,0-5,2.24023-5,5V118.5c0,2.75977,2.23999,5,5,5h67.64001c2.75995,0,5-2.24023,5-5v-14.8999
					c0.04999-0.03027,0.09998-0.05029,0.14996-0.07031c0.67999-0.33984,1.35004-0.70996,2-1.10986
					c0.04999-0.02002,0.09003-0.05029,0.14001-0.08008l3.38,3.73975l-0.29999,0.28027
					c-0.45001,0.41016-0.71002,0.95996-0.73999,1.56006c-0.03003,0.6001,0.17999,1.18018,0.57996,1.62988l1.79004,1.97998V123.65967
					z M127.98472,121.8999c-2.14613,1.93706-5.43526,1.76215-7.35999-0.37012l-8.91003-9.83984l7.72003-7l8.90998,9.8501
					C130.2747,116.66992,130.11473,119.96973,127.98472,121.8999z" class="color402da3 svgShape"></path><path fill="#fad014" d="M121.99442 10.50342c-.55225 0-1-.44727-1-1V7.48193c0-.55273.44775-1 1-1s1 .44727 1 1v2.02148C122.99442 10.05615 122.54667 10.50342 121.99442 10.50342zM121.99442 19.42725c-.55225 0-1-.44727-1-1v-2.02246c0-.55273.44775-1 1-1s1 .44727 1 1v2.02246C122.99442 18.97998 122.54667 19.42725 121.99442 19.42725zM127.46708 13.95459h-2.02197c-.55225 0-1-.44727-1-1s.44775-1 1-1h2.02197c.55225 0 1.00001.44727 1.00001 1S128.01933 13.95459 127.46708 13.95459zM118.54325 13.95459h-2.02197c-.55225 0-1-.44727-1-1s.44775-1 1-1h2.02197c.55225 0 1 .44727 1 1S119.0955 13.95459 118.54325 13.95459zM124.43436 11.51416c-.25586 0-.51172-.09766-.70703-.29297-.39063-.39063-.39063-1.02344 0-1.41406l1.42969-1.42969c.39063-.39063 1.02344-.39063 1.41406 0s.39063 1.02344 0 1.41406l-1.42969 1.42969C124.94608 11.4165 124.69022 11.51416 124.43436 11.51416zM118.12431 17.82471c-.25586 0-.51172-.09766-.70703-.29297-.39063-.38965-.39063-1.02344-.00049-1.41406l1.42969-1.43066c.39063-.39063 1.02393-.39063 1.41455 0 .39063.38965.39063 1.02344.00049 1.41406l-1.42969 1.43066C118.63651 17.72705 118.38017 17.82471 118.12431 17.82471zM125.86405 17.82471c-.25586 0-.51221-.09766-.70752-.29297l-1.42969-1.43066c-.39014-.39063-.39014-1.02441.00049-1.41406.39063-.39063 1.02393-.39063 1.41455 0l1.42969 1.43066c.39014.39063.39014 1.02441-.00049 1.41406C126.37577 17.72705 126.11991 17.82471 125.86405 17.82471zM119.55399 11.51416c-.25586 0-.51172-.09766-.70703-.29297l-1.42969-1.42969c-.39063-.39063-.39063-1.02344 0-1.41406s1.02344-.39063 1.41406 0l1.42969 1.42969c.39063.39063.39063 1.02344 0 1.41406C120.06571 11.4165 119.80985 11.51416 119.55399 11.51416z" class="colorfad014 svgShape"></path><path fill="#a2e55a" d="M7.55253,13.84814c-1.82227,0-3.51074-1.1875-4.06201-3.02148
					C3.16483,9.74365,3.28056,8.59912,3.81523,7.60205c0.53613-0.99707,1.42822-1.72559,2.51318-2.05176
					c1.08447-0.32422,2.23145-0.21094,3.22852,0.32617c0.99756,0.53516,1.72656,1.42676,2.05176,2.50977
					c0.67334,2.23926-0.60107,4.60938-2.84082,5.2832H8.76737C8.36308,13.79053,7.95439,13.84814,7.55253,13.84814z
					 M8.47978,12.71143h0.00977H8.47978z M7.55253,7.36963c-0.2168,0-0.43506,0.03223-0.64844,0.09668
					C6.33085,7.63818,5.86015,8.02197,5.57743,8.54834S5.23368,9.6792,5.40556,10.25049
					c0.35547,1.18262,1.60498,1.85645,2.78613,1.50293c1.18359-0.35547,1.85742-1.6084,1.50195-2.79102
					C9.52177,8.39111,9.13749,7.92139,8.61064,7.63818C8.27958,7.46045,7.91776,7.36963,7.55253,7.36963z" class="colora2e55a svgShape"></path><path fill="#ed7149" d="M123.65946 87.17432c-.54834 0-.99512-.44141-1-.99121l-.01953-2.18164c-.00488-.55176.43896-1.00391.99121-1.00879.00293 0 .00586 0 .00879 0 .54834 0 .99512.44141 1 .99121l.01953 2.18164c.00488.55176-.43896 1.00391-.99121 1.00879C123.66532 87.17432 123.66239 87.17432 123.65946 87.17432zM123.74638 96.80029c-.54834 0-.99512-.44141-1-.99121l-.01953-2.18164c-.00488-.55176.43896-1.00391.99121-1.00879.00293 0 .00586 0 .00879 0 .54834 0 .99512.44141 1 .99121l.01953 2.18164c.00488.55176-.43896 1.00391-.99121 1.00879C123.75224 96.80029 123.74931 96.80029 123.74638 96.80029zM127.41532 90.86279c-.54834 0-.99512-.44141-1-.99121-.00488-.55176.43896-1.00391.99121-1.00879l2.18165-.01953c.00293 0 .00586 0 .00879 0 .54834 0 .99512.44141 1 .99121.00488.55176-.43896 1.00391-.99121 1.00879l-2.18165.01953C127.42118 90.86279 127.41825 90.86279 127.41532 90.86279zM117.78934 90.94971c-.54834 0-.99512-.44141-1-.99121-.00488-.55176.43896-1.00391.99121-1.00879l2.18115-.01953c.00293 0 .00586 0 .00879 0 .54834 0 .99512.44141 1 .99121.00488.55176-.43896 1.00391-.99121 1.00879l-2.18115.01953C117.7952 90.94971 117.79227 90.94971 117.78934 90.94971zM126.30155 88.24072c-.25293 0-.50586-.0957-.70068-.28613-.39404-.3877-.3999-1.02051-.0127-1.41406l1.52832-1.55664c.38672-.39648 1.01954-.40039 1.41407-.01367.39404.3877.3999 1.02051.0127 1.41406l-1.52833 1.55664C126.81913 88.14111 126.56034 88.24072 126.30155 88.24072zM119.55643 95.10889c-.25293 0-.50586-.0957-.70068-.28613-.39404-.3877-.3999-1.02051-.0127-1.41406l1.52832-1.55664c.38672-.39648 1.01953-.39941 1.41406-.01367.39404.3877.3999 1.02051.0127 1.41406l-1.52832 1.55664C120.07401 95.00928 119.81522 95.10889 119.55643 95.10889zM127.90556 95.03271c-.25293 0-.50586-.0957-.70068-.28613l-1.55664-1.52832c-.39404-.3877-.3999-1.02051-.0127-1.41406.38672-.39648 1.01953-.40039 1.41406-.01367l1.55665 1.52832c.39404.3877.3999 1.02051.0127 1.41406C128.42314 94.93311 128.16435 95.03271 127.90556 95.03271zM121.0369 88.2876c-.25293 0-.50586-.0957-.70068-.28613l-1.55615-1.52832c-.39404-.3877-.3999-1.02051-.0127-1.41504.38672-.39453 1.01953-.39941 1.41406-.0127l1.55615 1.52832c.39404.3877.3999 1.02051.0127 1.41504C121.55448 88.18799 121.29569 88.2876 121.0369 88.2876z" class="colored7149 svgShape"></path><path fill="#ffffff" d="M67.55196,84.4541c-0.29639,0-0.59277-0.00781-0.89111-0.02344
				c-4.53223-0.22363-8.69043-2.18945-11.71143-5.53613C48.69551,72,49.18867,61.2832,56.04756,55.00293
				c3.21729-2.91406,7.16406-4.45703,11.40967-4.45703c0.29248,0,0.58594,0.00781,0.88037,0.02344
				c4.52197,0.22266,8.68799,2.19727,11.73291,5.55957c6.23877,6.88867,5.73096,17.60547-1.13184,23.88965
				C75.75801,82.89941,71.73653,84.4541,67.55196,84.4541z" opacity=".5" class="colorfff svgShape"></path></svg>