<svg id="SvgjsSvg1076" width="20" height="20" xmlns="http://www.w3.org/2000/svg" version="1.1" xmlns:xlink="http://www.w3.org/1999/xlink" xmlns:svgjs="http://svgjs.com/svgjs"><defs id="SvgjsDefs1077"></defs><g id="SvgjsG1078"><svg xmlns="http://www.w3.org/2000/svg" viewBox="0 0 24 24" width="20" height="20"><path fill="none" stroke="#000" stroke-linecap="round" stroke-linejoin="round" d="M9.60266192,11.646295 L10.5016034,10.7473536 L9.1531912,8.5 L7.84776431,9.02217076 C7.23757245,9.26626642 6.8922234,9.91470747 7.03021573,10.5572609 C7.33340346,11.9690373 8.19088552,13.3808137 9.60266192,14.7925901 C11.0144467,16.2043749 12.4262315,17.0618587 13.8380163,17.3650417 C14.4805721,17.5030146 15.1290102,17.1576653 15.3730889,16.5474685 L15.895252,15.2420608 L13.6478984,13.8936486 L12.748957,14.7925901 C12.1496627,14.4929429 11.5503684,14.0434722 10.9510741,13.4441779 C10.3517798,12.8448836 9.90230906,12.2455893 9.60266192,11.646295 Z M18.5,3.5 L4.5,3.5 C3.947,3.5 3.5,3.948 3.5,4.5 L3.5,18.5 C3.5,19.052 3.947,19.5 4.5,19.5 L18.5,19.5 C19.053,19.5 19.5,19.052 19.5,18.5 L19.5,4.5 C19.5,3.948 19.053,3.5 18.5,3.5 Z M3.5,6.5 L19.5,6.5 M6.5,1.5 L6.5,4.5 M11.5,1.5 L11.5,4.5 M16.5,1.5 L16.5,4.5" class="colorStroke000 svgStroke"></path></svg></g></svg>