<svg xmlns="http://www.w3.org/2000/svg" viewBox="0 0 128 128" width="256" height="256"><path d="M114.7 63.5c0-.1-.1-.2-.1-.3 0-.1-.1-.3-.2-.4-.1-.1-.2-.2-.2-.3l-.3-.3c-.1-.1-.2-.2-.4-.2l-.2-.2-96.6-43.5c-.9-.4-2-.2-2.7.5s-.9 1.8-.5 2.7L32.4 64l-18.9 42.5c-.4.9-.2 2 .5 2.7.5.5 1.1.7 1.7.7.3 0 .7-.1 1-.2l96.6-43.5c.1 0 .2-.1.2-.2.1-.1.2-.1.4-.2l.3-.3c.1-.1.2-.2.2-.3.1-.1.1-.3.2-.4 0-.1.1-.2.1-.3v-1c0 .1 0 0 0 0zm-94.2 39.2 16.1-36.3H101l-80.5 36.3zm16.1-41.1L20.5 25.3l80.6 36.3H36.6z" fill="white" class="color000 svgShape"></path></svg>