<svg xmlns="http://www.w3.org/2000/svg" viewBox="0 0 20 20" width="24" height="24"><path d="M15.513 6.543a.5.5 0 0 1-.49.51 8.52 8.52 0 0 0-2.83.443.494.494 0 0 1-.193.039.5.5 0 0 1-.192-.962 9.328 9.328 0 0 1 3.194-.52h.01a.5.5 0 0 1 .5.49Zm-.5 1.51h-.011a9.328 9.328 0 0 0-3.194.52.5.5 0 0 0 .192.962.494.494 0 0 0 .192-.039 8.52 8.52 0 0 1 2.831-.443.5.5 0 0 0-.01-1Zm-1.353 2.089a7.034 7.034 0 0 0-1.853.431.5.5 0 0 0 .386.923 6.126 6.126 0 0 1 1.582-.361.5.5 0 1 0-.115-.993ZM8.192 6.573a8.058 8.058 0 0 0-2.435-.485.514.514 0 0 0-.534.463.5.5 0 0 0 .464.534 7.221 7.221 0 0 1 2.12.411.494.494 0 0 0 .193.039.5.5 0 0 0 .192-.962Zm0 2a9.328 9.328 0 0 0-3.194-.52h-.01a.5.5 0 0 0-.011 1 8.52 8.52 0 0 1 2.83.443.494.494 0 0 0 .193.039.5.5 0 0 0 .192-.962Zm0 2a9.328 9.328 0 0 0-3.194-.52h-.01a.5.5 0 0 0-.011 1 8.52 8.52 0 0 1 2.83.443.494.494 0 0 0 .193.039.5.5 0 0 0 .192-.962Zm9.32-5.01v7.961a1.487 1.487 0 0 1-1.469 1.5c-1.255.021-4.335.15-5.824.875a.496.496 0 0 1-.438 0c-1.489-.725-4.57-.854-5.824-.875a1.487 1.487 0 0 1-1.47-1.5V5.563a1.494 1.494 0 0 1 1.444-1.5 12.514 12.514 0 0 1 5.265.769 2.216 2.216 0 0 1 .804.682 2.22 2.22 0 0 1 .803-.682 12.49 12.49 0 0 1 5.265-.769 1.494 1.494 0 0 1 1.445 1.5Zm-13.537 8.46a21.46 21.46 0 0 1 5.525.696V6.948a1.332 1.332 0 0 0-.732-1.213 11.585 11.585 0 0 0-4.801-.673.498.498 0 0 0-.48.5v7.962a.494.494 0 0 0 .488.5Zm12.538-8.46a.498.498 0 0 0-.48-.501c-.201-.007-.432-.012-.684-.012a10.429 10.429 0 0 0-4.118.685 1.334 1.334 0 0 0-.731 1.213v7.768a21.508 21.508 0 0 1 5.525-.692.494.494 0 0 0 .488-.5Z" fill="#000000" class="color000 svgShape"></path></svg>