<svg xmlns="http://www.w3.org/2000/svg" enable-background="new 0 0 512 512" viewBox="0 0 512 512" id="graduation-cap"><path d="M256.349 225.954c-13.6 0-24.664-11.064-24.664-24.664 0-13.604 11.064-24.67 24.664-24.67 13.603 0 24.669 11.066 24.669 24.67C281.018 214.89 269.951 225.954 256.349 225.954zM256.349 184.62c-9.188 0-16.664 7.479-16.664 16.67 0 9.188 7.476 16.664 16.664 16.664 9.191 0 16.669-7.476 16.669-16.664C273.018 192.099 265.54 184.62 256.349 184.62zM261.902 425.639c-48.579 0-98.948-13.817-149.71-41.069-1.298-.697-2.108-2.051-2.108-3.524V246.467c0-1.366.697-2.639 1.85-3.373 1.151-.734 2.599-.828 3.838-.254l140.577 65.425 145.445-67.706c1.993-.931 4.357-.075 5.3 1.906l.059.123c.256.537.389 1.125.389 1.72v136.737c0 1.422-.755 2.736-1.981 3.453C358.849 411.797 310.516 425.639 261.902 425.639zM118.084 378.645c48.87 25.877 97.244 38.994 143.818 38.994 46.49 0 92.787-13.086 137.639-38.897v-128.31l-141.504 65.871c-1.071.498-2.307.499-3.376.001L118.084 252.74V378.645z"></path><path fill="none" stroke="hashtag#000" stroke-linecap="round" stroke-linejoin="round" stroke-miterlimit="10" stroke-width="8" d="
M277.018,201.899c0-11.417-9.252-20.67-20.669-20.67c-11.412,0-20.664,9.253-20.664,20.67c0,11.411,9.252,20.664,20.664,20.664
C267.766,222.563,277.018,213.311,277.018,201.899z M453.288,221.665l-49.806,23.129l-147.134,68.492l-142.265-66.21
l-97.147-45.177L256.349,90.455l239.417,111.444L453.288,221.665z"></path><path d="M261.961,425.639c-48.624,0-98.992-13.81-149.769-41.069c-1.298-0.697-2.108-2.051-2.108-3.524V246.467
c0-2.209,1.791-4,4-4s4,1.791,4,4v132.178c98.671,52.279,190.79,52.31,281.457,0.097V244.308c0-2.209,1.791-4,4-4s4,1.791,4,4
v136.737c0,1.422-0.755,2.736-1.981,3.453c-45.713,26.716-92.993,40.552-140.524,41.122
C264.012,425.633,262.984,425.639,261.961,425.639z"></path><path d="M256.349,316.677c-0.576,0-1.153-0.124-1.688-0.373l-142.264-66.21L15.25,204.917c-1.411-0.656-2.313-2.07-2.313-3.626
s0.901-2.971,2.312-3.627L254.661,86.22c1.07-0.498,2.306-0.498,3.376,0l239.417,111.444c1.41,0.656,2.312,2.07,2.312,3.626
s-0.902,2.971-2.313,3.627l-42.478,19.766l-49.809,23.13l-147.13,68.49C257.502,316.552,256.925,316.677,256.349,316.677z
M26.419,201.288l89.351,41.552l140.578,65.425l145.445-67.706l49.81-23.131l34.683-16.139L256.349,94.259L26.419,201.288z"></path><path d="M453.293,225.056c-0.149,0-0.299-0.008-0.45-0.025l-176.271-19.765c-2.195-0.247-3.775-2.226-3.529-4.421
s2.217-3.79,4.421-3.529l176.27,19.765c2.196,0.247,3.776,2.226,3.529,4.421C457.034,223.545,455.303,225.056,453.293,225.056z
"></path><path d="M453.288 337.944c-2.209 0-4-1.791-4-4V221.056c0-2.209 1.791-4 4-4s4 1.791 4 4v112.889C457.288 336.153 455.497 337.944 453.288 337.944zM256.349 225.954c-13.6 0-24.664-11.064-24.664-24.664 0-13.604 11.064-24.67 24.664-24.67 13.603 0 24.669 11.066 24.669 24.67C281.018 214.89 269.951 225.954 256.349 225.954zM256.349 184.62c-9.188 0-16.664 7.479-16.664 16.67 0 9.188 7.476 16.664 16.664 16.664 9.191 0 16.669-7.476 16.669-16.664C273.018 192.099 265.54 184.62 256.349 184.62z"></path><path d="M453.711 369.727c-10.523 0-19.085-8.562-19.085-19.084 0-10.521 8.562-19.079 19.085-19.079 10.52 0 19.078 8.559 19.078 19.079C472.789 361.165 464.23 369.727 453.711 369.727zM453.711 339.563c-6.112 0-11.085 4.97-11.085 11.079 0 6.111 4.973 11.084 11.085 11.084 6.108 0 11.078-4.973 11.078-11.084C464.789 344.533 459.819 339.563 453.711 339.563zM453.826 399.824c-2.191 0-3.979-1.766-3.999-3.963l-.181-19.227c-.021-2.209 1.753-4.017 3.963-4.037.012 0 .025 0 .038 0 2.191 0 3.979 1.766 3.999 3.963l.181 19.227c.021 2.209-1.753 4.017-3.963 4.037C453.853 399.824 453.839 399.824 453.826 399.824zM485.61 386.248c-1.012 0-2.024-.382-2.803-1.146l-13.7-13.459c-1.576-1.548-1.599-4.081-.051-5.656 1.549-1.578 4.081-1.599 5.656-.051l13.7 13.459c1.576 1.548 1.599 4.081.051 5.656C487.681 385.849 486.646 386.248 485.61 386.248zM421.806 386.97c-1.009 0-2.019-.379-2.797-1.141-1.579-1.545-1.607-4.077-.063-5.656l13.4-13.7c1.544-1.579 4.077-1.608 5.656-.063 1.579 1.545 1.607 4.077.063 5.656l-13.4 13.7C423.882 386.567 422.844 386.97 421.806 386.97zM203.602 387.27c-.307 0-.618-.035-.929-.109-28.144-6.697-56.951-17.919-85.621-33.354-1.945-1.048-2.673-3.474-1.626-5.419 1.047-1.944 3.474-2.671 5.418-1.626 28.059 15.105 56.213 26.079 83.681 32.615 2.149.512 3.477 2.668 2.965 4.817C207.052 386.032 205.412 387.27 203.602 387.27zM255.031 394.655c-.045 0-.09-.001-.136-.002-8.892-.297-18.154-1.201-27.528-2.688-2.182-.346-3.67-2.395-3.324-4.577.347-2.181 2.396-3.673 4.577-3.323 9.049 1.435 17.979 2.308 26.542 2.593 2.208.074 3.938 1.924 3.864 4.132C258.954 392.951 257.178 394.655 255.031 394.655z"></path></svg>