<svg xmlns="http://www.w3.org/2000/svg" viewBox="0 0 64 64" width="20" height="20"><path fill="#2d3e50" d="M40.162 20.561c.035-.657-.337-1.554-1.041-1.721-.356-.084-.681.065-.854-.321-.098-.218.066-.797.092-1.031.065-.582.098-1.204.24-1.774.264-1.058.429-2.142.468-3.233.122-3.358-1.537-6.122-4.606-7.487-.35-.156-.703-.299-1.058-.43a18.022 18.022 0 0 0-6.138-1.104 19.61 19.61 0 0 0-1.369.035c-1.469.087-3.038.203-4.383.853a3.905 3.905 0 0 0-.385.215 4.286 4.286 0 0 0-1.24 1.244c-.334.501-.445.784-.935 1.177-.433.35-.821.606-1.303.818-.428.19-.81.492-1.042.904-.476.845-.644 1.87-.683 2.828-.05 1.2.003 2.4.087 3.597.03.425.111.85.196 1.273.131.648.27 1.297.244 1.951-.009.204-.092.319-.216.392a.92.92 0 0 1-.126.021c-.232.027-.47.017-.698.071-.705.166-1.077 1.064-1.042 1.721l.007.126a7.44 7.44 0 0 0 .01.921c.037.618.162 1.229.238 1.846.168 1.367.809 2.681 2.116 3.332.273.218.453.44.552.827.785 3.052 2.312 5.513 4.79 7.206.306.208.626.405.963.592.401.205.938.445 1.634.681l.116.05c.423.181.843.309 1.275.391.399.075.797.107 1.195.098.399.009.797-.023 1.208-.101a6.048 6.048 0 0 0 1.262-.388c.038-.016.078-.033.116-.041a13.492 13.492 0 0 0 1.636-.692c.335-.186.655-.383.961-.591a11.099 11.099 0 0 0 3.192-3.349c.416-.673.75-1.386 1.044-2.119.285-.711.282-1.498.779-2.113.365-.451.844-.793 1.271-1.185.771-.706 1.047-1.583 1.171-2.599.076-.616.2-1.227.238-1.846.018-.303.029-.614.01-.921a4.32 4.32 0 0 0 .008-.124zM48.469 43.449l-9.154-3.474-.019-.006c-.689-.171-1.379-.342-2.065-.519l-.721-.177a2.327 2.327 0 0 0-.444-.044c-.102-.004-.217-.008-.353-.019l-.138-.004-.034.133c-.04.154-.08.309-.128.463l-.365 1.367c-.465 1.751-.946 3.561-1.486 5.316-.807 2.609-1.729 5.233-2.623 7.774l-.006.022c-.004.02-.013.04-.024.067a4.316 4.316 0 0 1-.141.349c-.078-.573-.162-1.208-.249-1.871-.081-.612-.165-1.248-.25-1.879a508.46 508.46 0 0 1-.716-5.69l.029-.068c.124-.289.241-.562.368-.834l.013-.031a.673.673 0 0 1 .038-.082l.063-.149c.056-.135.113-.274.172-.397.033-.047.059-.097.084-.146l.045-.084.049-.099c.112-.221.239-.472.239-.781 0-.259-.092-.494-.166-.682l-.072-.166-.01-.027c-.009-.025-.017-.048-.036-.085a1.657 1.657 0 0 0-.115-.245l-.023-.035-.017-.023-.019-.033a.751.751 0 0 0-.22-.242c-.138-.094-.273-.123-.365-.143l-.196-.004a.468.468 0 0 0-.217-.047c-.288-.018-1.011-.018-1.939-.018-.916 0-1.639 0-1.917.018-.039 0-.134 0-.228.047h-.162l-.036.004a.956.956 0 0 0-.364.143.767.767 0 0 0-.219.241l-.019.033a.595.595 0 0 1-.017.022l-.031.048a1.542 1.542 0 0 0-.107.231.44.44 0 0 0-.036.085l-.008.023-.074.171c-.074.188-.166.423-.166.682 0 .308.127.559.238.78l.055.11.04.074c.025.048.051.098.084.146.059.123.116.262.172.397l.055.132.009.018c.015.026.027.056.038.083l.015.035c.125.266.242.54.366.829l.029.067a481.063 481.063 0 0 1-.966 7.57c-.088.662-.171 1.297-.249 1.87a4.205 4.205 0 0 1-.144-.356c-.008-.02-.017-.04-.021-.059l-.01-.032c-.891-2.536-1.813-5.157-2.619-7.764-.54-1.756-1.021-3.568-1.487-5.321-.121-.454-.241-.908-.365-1.368-.046-.151-.088-.31-.128-.465l-.034-.133-.137.011c-.136.011-.251.015-.353.019-.164.006-.306.011-.445.044l-.722.178c-.684.177-1.373.348-2.063.518l-9.167 3.478C.609 45.27.879 48.98.881 49.002v7.119l.001.018c.496 4.343 3.845 4.397 4.007 4.397h44.758c.143 0 3.497-.05 3.994-4.397l.001-.009-.001-7.114c.009-.034.278-3.744-5.172-5.567z" class="color2D3E50 svgShape"></path><path fill="#2e79be" d="M59.97 9.671H41.679c.172.746.258 1.531.268 2.344H59.97c.325 0 .603.191.727.469.048.105.077.22.077.344v15.785a.822.822 0 0 1-.45.727.875.875 0 0 1-.354.086h-5.788c-.22.077-.411.22-.612.421-.622.651-1.263 1.282-1.894 1.923-.718.718-1.445 1.435-2.162 2.153-.143.143-.316.258-.593.488v-2.64c0-.631 0-1.272.01-1.904 0-.21-.019-.354-.124-.44H39.66c-.077.287-.163.622-.306.995-.201.478-.402.928-.603 1.349h7.663c.191.076.191.268.191.756 0 1.98-.01 3.951.019 5.931.01.249.201.612.411.718.172.086.507-.115.746-.23.144-.067.239-.22.354-.335 2.153-2.162 4.315-4.305 6.458-6.477.182-.182.373-.297.584-.364h4.793c.191 0 .373-.019.555-.048a3.164 3.164 0 0 0 2.593-3.109V12.828a3.153 3.153 0 0 0-3.148-3.157z" class="color2E79BE svgShape"></path><path fill="#2e79be" d="M48.299 20.376a2.944 2.944 0 0 1-2.937 2.937 2.896 2.896 0 0 1-2.373-1.225 2.87 2.87 0 0 1-.564-1.712c0-.507.134-.985.354-1.406.01 0 .01 0 0-.01a2.953 2.953 0 0 1 2.583-1.521 2.938 2.938 0 0 1 2.937 2.937z" class="color2E79BE svgShape"></path><circle cx="54.991" cy="20.375" r="2.934" fill="#2e79be" class="color2E79BE svgShape"></circle></svg>