<svg xmlns="http://www.w3.org/2000/svg" viewBox="0 0 24 24" width="30" height="30"><path fill="#f2f2f2" d="M16 4H8a8 8 0 1 0 0 16h8a8 8 0 1 0 0-16z" class="colorF2F2F2 svgShape"></path><linearGradient id="a" x1="12" x2="12" y1="4.845" y2="17.512" gradientUnits="userSpaceOnUse"><stop offset="0" stop-opacity=".1" stop-color="#000000" class="stopColor000000 svgShape"></stop><stop offset="1" stop-opacity="0" stop-color="#000000" class="stopColor000000 svgShape"></stop></linearGradient><path fill="url(#a)" d="M16 4H8a8 8 0 1 0 0 16h8a8 8 0 1 0 0-16z"></path><path d="M8 4.25h8c4.376 0 7.933 3.39 8 7.75a8 8 0 0 0-8-8H8a8 8 0 0 0-8 8c0 .042 0-.042 0 0 .068-4.36 3.624-7.75 8-7.75z" opacity=".05" fill="#000000" class="color000 svgShape"></path><circle cx="8" cy="12" r="6" fill="#0adc85" class="color039BE5 svgShape"></circle><path d="M8 17.727a6.133 6.133 0 0 1-5.741-3.985 6 6 0 0 0 11.482 0 6.133 6.133 0 0 1-5.74 3.985z" opacity=".1" fill="#000000" class="color000 svgShape"></path><path fill="#ffffff" d="M8 6.273a6.133 6.133 0 0 1 5.741 3.985 6 6 0 0 0-11.482 0A6.133 6.133 0 0 1 8 6.273z" opacity=".2" class="colorFFF svgShape"></path><linearGradient id="b" x1="2.561" x2="13.439" y1="9.464" y2="14.536" gradientUnits="userSpaceOnUse"><stop offset="0" stop-color="#ffffff" stop-opacity=".2" class="stopColorFFF svgShape"></stop><stop offset="1" stop-color="#ffffff" stop-opacity="0" class="stopColorFFF svgShape"></stop></linearGradient><circle cx="8" cy="12" r="6" fill="url(#b)"></circle><linearGradient id="c" x1="1.462" x2="22.538" y1="7.086" y2="16.914" gradientUnits="userSpaceOnUse"><stop offset="0" stop-color="#ffffff" stop-opacity=".2" class="stopColorFFF svgShape"></stop><stop offset="1" stop-color="#ffffff" stop-opacity="0" class="stopColorFFF svgShape"></stop></linearGradient><path fill="url(#c)" d="M16 4H8a8 8 0 1 0 0 16h8a8 8 0 1 0 0-16z"></path></svg>