<svg xmlns="http://www.w3.org/2000/svg" fill-rule="evenodd" clip-rule="evenodd" image-rendering="optimizeQuality" shape-rendering="geometricPrecision" text-rendering="geometricPrecision" viewBox="0 0 512 512" width="256" height="256"><path fill="#865151" d="M30.34 407.82c-4.92,0 -9.19,-3.66 -9.82,-8.66 -1.35,-10.66 -31.99,-262.05 64.38,-348.66 30,-26.96 68.85,-35.17 115.5,-24.42 7.98,-0.08 41.53,1.64 72.93,34.73 23.5,24.75 40.14,61.12 49.48,108.09 11.67,58.69 11.88,134.3 0.65,224.72 -0.67,5.44 -5.63,9.3 -11.05,8.62 -2.34,-0.29 -4.39,-1.38 -5.91,-2.95l-267.34 3.16c-1.45,2.8 -4.2,4.87 -7.56,5.29 -0.43,0.06 -0.85,0.08 -1.26,0.08z" class="color865151 svgShape"></path><path fill="#cb6c35" d="M174.63 490.5l-169.01 0c-1.47,0 -2.88,-0.59 -3.91,-1.63 -1.03,-1.04 -1.61,-2.46 -1.59,-3.93 0.03,-2.42 0.84,-59.69 17.44,-80.94 20.91,-26.76 44.76,-36.93 67.43,-43.94 2.59,-0.8 5.13,-1.55 7.61,-2.29 23.27,-6.9 37.31,-11.06 38.51,-35.13 0.15,-3.04 2.72,-5.39 5.76,-5.22 3.03,0.15 5.37,2.73 5.22,5.76l-0.01 0.17 29.34 5.6 3.21 -0.49 3.21 0.49 29.34 -5.6 -0.01 -0.17c-0.15,-3.03 2.18,-5.61 5.22,-5.76 3.03,-0.17 5.61,2.18 5.76,5.22 1.19,24.07 15.24,28.23 38.5,35.13 2.48,0.74 5.02,1.49 7.61,2.29 22.67,7.01 46.53,17.18 67.43,43.94 16.6,21.25 17.42,78.52 17.44,80.94 0.02,1.47 -0.55,2.89 -1.58,3.93 -1.04,1.04 -2.44,1.63 -3.91,1.63l-169.01 0z" class="colorcb6c35 svgShape"></path><path fill="#ecc49a" d="M86.34 359.65c2.12,-0.65 4.21,-1.27 6.26,-1.88 23.27,-6.9 37.31,-11.06 38.51,-35.13 0.15,-3.04 2.72,-5.39 5.76,-5.22 3.03,0.15 5.37,2.73 5.22,5.76l-0.01 0.17 29.34 5.6 35.76 -5.45 -0.02 -0.32c-0.15,-3.03 2.19,-5.61 5.22,-5.76 3.02,-0.17 5.62,2.19 5.77,5.22 1.19,24.07 15.23,28.24 38.48,35.14l3.72 1.1c-0.06,5.86 -0.16,11.33 -0.28,12.6 -4.28,44.03 -41.54,78.57 -86.72,78.57 -23.31,0 -45.18,-8.91 -61.58,-25.07 -14.36,-14.16 -23.1,-32.5 -25.1,-52.37 -0.15,-1.49 -0.26,-7.26 -0.33,-12.96z" class="colorecc49a svgShape"></path><path fill="#d4b08b" d="M183.3 449.48c-3.27,0.37 -6.59,0.57 -9.95,0.57 -3.33,0 -6.62,-0.19 -9.88,-0.54l-0.01 -32.43c0,-5.48 4.44,-9.91 9.91,-9.91 5.48,0 9.92,4.43 9.92,9.91l0.01 32.4z" class="colord4b08b svgShape"></path><path fill="#fed1a3" d="M175.98 334.59c-0.15,0 -0.3,0 -0.45,0 -19.98,-0.09 -39.31,-5.83 -55.91,-16.6 -39.73,-25.79 -57.1,-74.98 -47.68,-134.99 0.02,-0.19 0.06,-0.37 0.1,-0.56l0 -0.01 0.07 -0.26 0 0 0.04 -0.13 0 0 0.04 -0.12 0.01 -0.01 0.04 -0.12 0 -0.01 0.05 -0.11 0 -0.02 0.05 -0.1 0.01 -0.02 0.04 -0.11 0.01 -0.02 0.05 -0.09 0.01 -0.03 0.05 -0.09 0.01 -0.03 0.05 -0.09 0.07 -0.11 0.01 -0.03 0.05 -0.09 0.02 -0.03 0.05 -0.08c0.07,-0.11 0.15,-0.22 0.23,-0.32l0.02 -0.04 0.06 -0.07 0.03 -0.03 0.05 -0.07 0.03 -0.03 0.06 -0.07 0.09 -0.1 0.03 -0.03 0.06 -0.07 0.03 -0.03 0.06 -0.06 0.03 -0.03 0.06 -0.06 0.04 -0.03c0.44,-0.42 0.96,-0.76 1.53,-1.01l0.11 -0.05 0.02 0 0.11 -0.05 0.01 0 0.12 -0.05 0.13 -0.04 0 0 0.13 -0.04 0 0 0.13 -0.04 0 0 0.13 -0.03 0.01 -0.01 0.12 -0.02 0.02 -0.01 0.11 -0.02 0.02 0 0.11 -0.02 0.03 -0.01 0.1 -0.02c20.04,-3.32 86.4,-17.9 106.33,-66.47 0.04,-0.1 0.09,-0.21 0.14,-0.31l0.03 -0.08 0.03 -0.05 0.03 -0.06 0.03 -0.06 0.03 -0.06 0.04 -0.06 0.03 -0.06 0.04 -0.06 0.03 -0.05 0.04 -0.07 0.03 -0.04c0.29,-0.45 0.63,-0.84 1.03,-1.18l0.01 -0.01 0.09 -0.08 0.01 0 0.09 -0.08 0.01 -0.01 0.1 -0.07 0.01 -0.01 0.1 -0.07 0.01 0 0.1 -0.07 0.01 -0.01 0.1 -0.06 0.01 -0.01 0.1 -0.06 0.01 -0.01 0.1 -0.06 0.02 -0.01 0.1 -0.05 0.02 -0.01 0.1 -0.05 0.01 -0.01 0.11 -0.05 0.11 -0.06 0.03 -0.01 0.09 -0.04 0.25 -0.09 0.03 -0.02 0.1 -0.03 0.03 -0.01 0.09 -0.03 0.04 -0.01 0.09 -0.03 0.05 -0.01 0.07 -0.02 0.06 -0.01c0.84,-0.21 1.73,-0.23 2.6,-0.01l0.01 0 0.13 0.03 0 0 0.13 0.04 0 0 0.13 0.04 0.01 0 0.11 0.04 0.02 0 0.11 0.04 0.02 0.01 0.1 0.04 0.03 0.02 0.1 0.03 0.04 0.02 0.08 0.04 0.04 0.02 0.08 0.03 0.05 0.03 0.07 0.03 0.05 0.03 0.06 0.04 0.07 0.03 0.05 0.03 0.07 0.04 0.04 0.03 0.07 0.04 0.04 0.03 0.08 0.05 0.03 0.02 0.08 0.06 0.03 0.02 0.08 0.06 0.03 0.02 0.08 0.06 0.02 0.02 0.08 0.06 0.02 0.02 0.09 0.07 0.01 0.02 0.09 0.07 0.01 0.01 0.09 0.08 0.01 0.01 0.08 0.09 0.01 0 0.08 0.09 0.01 0.01 0.08 0.09 0.18 0.2 0 0.01 0.16 0.2 0 0.01c0.42,0.55 0.73,1.19 0.91,1.89l0.01 0.04 0.02 0.09 0.01 0.04 0.01 0.09 0.02 0.05 0.01 0.08 0.01 0.06 0.01 0.07 0.01 0.06 0.04 0.28 0 0.03 0 0.02 0 0.02 0 0c0.12,1.06 1.82,14.27 11.86,28.8 13.96,20.2 36.67,33.34 67.5,39.07 0.17,0.03 0.33,0.06 0.5,0.11l0.03 0.01 0.1 0.02 0.03 0.01 0.1 0.04 0.03 0 0.13 0.05 0.1 0.04 0.02 0 0.11 0.05 0.01 0 0.12 0.05 0 0c0.67,0.29 1.25,0.7 1.73,1.2l0.02 0.01 0.07 0.09 0.02 0.01 0.07 0.08 0.02 0.02 0.07 0.08 0.01 0.02 0.07 0.08 0.02 0.02 0.07 0.09 0.01 0.01 0.07 0.1 0 0.01 0.07 0.09 0.01 0.02 0.07 0.1 0 0 0.07 0.11 0.01 0.01 0.06 0.1 0 0.01 0.07 0.11 0 0 0.06 0.12 0 0 0.06 0.12 0 0 0.06 0.12 0 0 0.05 0.12 0.01 0 0.04 0.12 0.01 0.01 0.04 0.11 0.01 0.02 0.04 0.11 0 0.02c0.13,0.37 0.23,0.76 0.27,1.16 9.26,59.07 -7.56,107.31 -46.16,132.36 -16.32,10.6 -35.42,16.19 -55.27,16.19z" class="colorfed1a3 svgShape"></path><path fill="#a5572b" d="M274.68 490.5l-11 0 0-29.68c0-3.04 2.46-5.5 5.5-5.5 3.03 0 5.5 2.46 5.5 5.5l0 29.68zM85.57 490.5l-11 0 0-29.68c0-3.04 2.47-5.5 5.5-5.5 3.04 0 5.5 2.46 5.5 5.5l0 29.68z" class="colora5572b svgShape"></path><path fill="#a5572b" d="M81.96 490.34c-5.47 0-9.91-4.44-9.91-9.91l0-23.71c0-5.47 4.44-9.91 9.91-9.91 5.47 0 9.91 4.44 9.91 9.91l0 23.71c0 5.47-4.43 9.91-9.91 9.91zM267.29 490.34c-5.47 0-9.91-4.44-9.91-9.91l0-23.71c0-5.47 4.44-9.91 9.91-9.91 5.47 0 9.91 4.44 9.91 9.91l0 23.71c0 5.47-4.44 9.91-9.91 9.91z" class="colora5572b svgShape"></path><path fill="#999999" d="M174.67 295.1c-8.4 0-16.29-3.27-22.23-9.21-3.87-3.87-3.87-10.14 0-14.01 3.87-3.87 10.15-3.87 14.02 0 2.19 2.19 5.11 3.4 8.21 3.4 3.1 0 6.01-1.21 8.2-3.4 3.87-3.87 10.15-3.88 14.02-.01 3.87 3.87 3.87 10.15 0 14.02-5.93 5.94-13.83 9.21-22.22 9.21zM143.79 238.78l-6.08 0c-5.47 0-9.91-4.44-9.91-9.91 0-5.48 4.44-9.92 9.91-9.92l6.08 0c5.47 0 9.91 4.44 9.91 9.92 0 5.47-4.44 9.91-9.91 9.91zM211.63 238.78l-6.08 0c-5.47 0-9.91-4.44-9.91-9.91 0-5.48 4.44-9.92 9.91-9.92l6.08 0c5.48 0 9.91 4.44 9.91 9.92 0 5.47-4.43 9.91-9.91 9.91z" class="color999 svgShape"></path><path fill="#926262" d="M245.38 38.78c9.02,5.07 18.58,12.15 27.95,22.03 20.47,21.57 35.74,51.95 45.51,90.48l-26.91 0c-36.34,0 -65.9,-29.56 -65.9,-65.9 0,-18.19 7.4,-34.67 19.35,-46.61z" class="color926262 svgShape"></path><path fill="#e63950" d="M451.98 145.29l-160.05 0c-33.03,0 -59.9,-26.87 -59.9,-59.9 0,-33.04 26.87,-59.91 59.9,-59.91l160.05 0c33.03,0 59.9,26.87 59.9,59.91 0,33.03 -26.87,59.9 -59.9,59.9z" class="colore63950 svgShape"></path><path fill="#ffffff" d="M281.35 116.8l0 0 -0.15 -0.01 0 0 -0.16 0 0 0 -0.15 -0.01 0 0 -0.15 -0.01 0 0 -0.15 -0.02 0 0 -0.15 -0.02 0 0 -0.15 -0.03 0 0 -0.15 -0.03 0 0 -0.14 -0.03 0 0 -0.15 -0.03 0 0 -0.14 -0.04 0 0 -0.14 -0.04 0 0 -0.14 -0.05 0 0 -0.14 -0.05 0 0 -0.14 -0.05 0 0 -0.13 -0.06 0 0 -0.14 -0.05 0 0 -0.13 -0.07 0 0 -0.13 -0.06 0 0 -0.13 -0.07 0 0 -0.12 -0.07 0 0 -0.13 -0.07 0 0 -0.12 -0.08 0 0 -0.12 -0.08 0 0 -0.12 -0.08 0 0 -0.12 -0.09 0 0 -0.11 -0.08 0 0 -0.11 -0.09 0 0 -0.11 -0.1 0 0 -0.11 -0.09 0 0 -0.11 -0.1 0 0 -0.1 -0.1 0 0 -0.1 -0.1 0 0 -0.1 -0.11 0 0 -0.09 -0.11 -0.01 0 -0.09 -0.11 0 0 -0.09 -0.11 0 0 -0.09 -0.11 0 0 -0.08 -0.12 0 0 -0.08 -0.12 0 0 -0.08 -0.12 0 0 -0.08 -0.12 0 0 -0.07 -0.13 0 0 -0.07 -0.12 0 0 -0.07 -0.13 0 0 -0.07 -0.13 0 0 -0.06 -0.13 0 0 -0.06 -0.14 0 0 -0.05 -0.13 0 0 -0.05 -0.14 0 0 -0.05 -0.14 0 0 -0.05 -0.14 0 0 -0.04 -0.14 0 0 -0.04 -0.14 0 0 -0.03 -0.15 -0.01 0 -0.03 -0.14 0 0 -0.02 -0.15 -0.01 0 -0.02 -0.15 0 0 -0.02 -0.15 0 0 -0.02 -0.15 0 0 -0.01 -0.15 0 0 -0.01 -0.16 0 0 -0.01 -0.15 0 0 0 -0.15 0 0 0 -0.08 0 -50.74c0,-3.32 2.69,-6 6,-6 3.32,0 6,2.68 6,6l0 44.82 22.56 0c3.32,0 6,2.68 6,6 0,3.31 -2.68,6 -6,6l-28.56 0zm181.21 0l-25.41 0c-3.31,0 -6,-2.69 -6,-6l0 -25.41 0 -25.41c0,-3.32 2.69,-6 6,-6l25.41 0c3.31,0 6,2.68 6,6 0,3.31 -2.69,6 -6,6l-19.41 0 0 13.41 19.41 0c3.31,0 6,2.69 6,6 0,3.31 -2.69,6 -6,6l-19.41 0 0 13.41 19.41 0c3.31,0 6,2.68 6,6 0,3.31 -2.69,6 -6,6zm-78.09 -0.05c-0.2,-0.02 -0.4,-0.06 -0.59,-0.1l-0.02 -0.01 -0.02 0 -0.04 -0.01 -0.15 -0.04 -0.01 0 -0.03 -0.01 -0.06 -0.02 -0.02 -0.01 -0.2 -0.06 -0.04 -0.01 -0.03 -0.01 -0.01 -0.01 -0.03 -0.01 -0.07 -0.02 -0.01 0 -0.08 -0.03 -0.01 -0.01 -0.14 -0.05 -0.04 -0.02 -0.01 -0.01 -0.03 -0.01 -0.11 -0.05 -0.06 -0.02 -0.09 -0.05 -0.1 -0.05 -0.03 -0.01 -0.06 -0.04 -0.07 -0.04 -0.02 -0.01 -0.09 -0.05 -0.02 -0.01 -0.07 -0.04 -0.09 -0.06 -0.09 -0.06 -0.01 0 -0.08 -0.05 -0.05 -0.03 -0.04 -0.03 -0.08 -0.06 0 -0.01 -0.09 -0.06 -0.07 -0.06 -0.01 0 -0.06 -0.05 -0.03 -0.02 -0.08 -0.07 -0.01 -0.01 -0.07 -0.06c-0.24,-0.21 -0.47,-0.45 -0.67,-0.69l-0.07 -0.09 0 0 -0.13 -0.17 -0.04 -0.06 -0.03 -0.03c-0.24,-0.34 -0.44,-0.71 -0.61,-1.09l-20.07 -43.89c-1.38,-3.01 -0.05,-6.57 2.96,-7.95 3.02,-1.38 6.58,-0.05 7.96,2.96l14.67 32.08 14.67 -32.08c1.38,-3.01 4.94,-4.33 7.95,-2.96 3.01,1.38 4.34,4.94 2.96,7.95l-20.05 43.85c-0.35,0.82 -0.88,1.57 -1.57,2.17l-0.07 0.06 -0.01 0.01 -0.08 0.07 -0.17 0.13 -0.08 0.06 -0.01 0.01 -0.08 0.06 -0.09 0.06 -0.08 0.05 0 0c-0.09,0.06 -0.18,0.12 -0.27,0.17l-0.1 0.05 -0.02 0.01 -0.07 0.04 -0.06 0.04 -0.03 0.01 -0.19 0.1 -0.06 0.02 -0.11 0.05 -0.02 0.01 -0.2 0.08 -0.01 0.01 -0.08 0.03 -0.01 0 -0.07 0.02 -0.03 0.01 0 0.01 -0.27 0.08 -0.03 0.01 -0.05 0.02 -0.04 0.01 -0.01 0 -0.15 0.04 -0.04 0.01 -0.01 0 -0.03 0.01c-0.11,0.02 -0.23,0.05 -0.35,0.07l-0.04 0 0 0 -0.15 0.03 -0.04 0 -0.02 0 -0.06 0.01 -0.04 0 0 0 -0.04 0.01 -0.17 0.01 -0.03 0 -0.04 0.01 -0.03 0 -0.01 0 -0.03 0 -0.04 0 -0.04 0 0 0 -0.04 0 -0.04 0.01 -0.02 0 -0.02 0 -0.04 0 -0.04 0 -0.01 0 -0.04 0 -0.04 0 -0.02 0 -0.02 0 -0.04 -0.01 -0.03 0 -0.01 0 -0.03 0 -0.04 0 -0.04 0 0 0 -0.04 0 -0.04 -0.01 -0.02 0 -0.32 -0.03 -0.01 0zm-51.19 0.05c-3.31,0 -6,-2.69 -6,-6l0 -50.82c0,-3.32 2.69,-6 6,-6 3.32,0 6,2.68 6,6l0 50.82c0,3.31 -2.68,6 -6,6z" class="colorfff svgShape"></path></svg>