<svg id="SvgjsSvg1001" width="16" height="16" xmlns="http://www.w3.org/2000/svg" version="1.1" xmlns:xlink="http://www.w3.org/1999/xlink" xmlns:svgjs="http://svgjs.com/svgjs"><defs id="SvgjsDefs1002"></defs><g id="SvgjsG1008"><svg xmlns="http://www.w3.org/2000/svg" enable-background="new 0 0 66 66" viewBox="0 0 66 66" width="16" height="16"><path d="M61.3,0.8H4.7C2.6,0.8,1,2.5,1,4.6v45.9c0,2.1,1.6,3.8,3.7,3.8h20c1.1,1.7,1.5,3.3,1,4.8H23c-2.9,0-5.4,2.1-6,4.9
		c-0.1,0.3,0,0.6,0.2,0.8c0.2,0.2,0.5,0.4,0.8,0.4h30c0.3,0,0.6-0.1,0.8-0.4C49,64.6,49,64.3,49,64c-0.6-2.9-3.1-4.9-6-4.9h-2.6
		c-0.5-1.7-0.3-3.3,0.6-4.8h20.4c2,0,3.7-1.7,3.7-3.8V4.6C65,2.5,63.4,0.8,61.3,0.8z M46.6,63.2H19.4c0.7-1.3,2.1-2.1,3.6-2.1h19.9
		C44.5,61,45.8,61.9,46.6,63.2z M38.3,59H27.7c0.3-1.6,0.1-3.2-0.8-4.8h11.7C38,55.8,37.9,57.4,38.3,59z M63,50.5
		c0,1-0.7,1.8-1.7,1.8H4.7c-0.9,0-1.7-0.8-1.7-1.8V4.6c0-1,0.8-1.8,1.7-1.8h56.7c0.9,0,1.7,0.8,1.7,1.8V50.5z" fill="#000000" class="color000 svgShape"></path><path d="M47.8 12c-5 0-9.1 4.1-9.1 9.1 0 5 4.1 9.1 9.1 9.1 5 0 9.1-4.1 9.1-9.1C56.9 16.1 52.8 12 47.8 12zM54.9 20.4h-6v-6.3C52.1 14.5 54.6 17.1 54.9 20.4zM47.8 28.1c-3.9 0-7.1-3.2-7.1-7.1 0-3.6 2.6-6.5 6.1-7v7.3c0 .6.4 1 1 1h6.9C54.1 25.6 51.3 28.1 47.8 28.1zM52.9 34.9H42.8c-.6 0-1 .4-1 1 0 .6.4 1 1 1h10.2c.6 0 1-.4 1-1C53.9 35.3 53.5 34.9 52.9 34.9zM52.9 41.1H42.8c-.6 0-1 .4-1 1 0 .6.4 1 1 1h10.2c.6 0 1-.4 1-1C53.9 41.5 53.5 41.1 52.9 41.1zM38.1 41h-3.6V27.6c0-.6-.4-1-1-1-.6 0-1 .4-1 1V41h-4.2v-5.4c0-.6-.4-1-1-1-.6 0-1 .4-1 1V41h-4.2v-9.2c0-.6-.4-1-1-1-.6 0-1 .4-1 1V41h-4.2v-5.4c0-.6-.4-1-1-1-.6 0-1 .4-1 1V41h-2.8V13.1c0-.6-.4-1-1-1-.6 0-1 .4-1 1V42c0 .6.4 1 1 1h28.1c.6 0 1-.4 1-1C39.1 41.4 38.7 41 38.1 41z" fill="#000000" class="color000 svgShape"></path><path d="M15.4,28.9l5.6-5.6l5.7,4.5c0.2,0.2,0.5,0.2,0.8,0.2c0.3,0,0.5-0.2,0.7-0.4l6.2-8.6c0.3-0.4,0.2-1.1-0.2-1.4
		c-0.4-0.3-1.1-0.2-1.4,0.2l-5.6,7.7l-5.6-4.4c-0.4-0.3-1-0.3-1.3,0.1L14,27.5c-0.4,0.4-0.4,1,0,1.4C14.4,29.3,15,29.3,15.4,28.9z" fill="#000000" class="color000 svgShape"></path></svg></g></svg>