<svg xmlns="http://www.w3.org/2000/svg" viewBox="0 0 260 260" width="32" height="32"><path fill="#edf5f9" d="M153.858 213.6H15.996c-5.153 0-9.345-4.193-9.345-9.345v-23.288c0-5.153 4.192-9.346 9.345-9.346h56.168a3.666 3.666 0 0 0 3.663-3.662v-24.614a3.667 3.667 0 0 0-3.663-3.663H32.392a5.67 5.67 0 0 1-5.663-5.663v-4.386a5.67 5.67 0 0 1 5.663-5.662h65.58a3.667 3.667 0 0 0 3.662-3.663V91.89a3.666 3.666 0 0 0-3.663-3.662H29.256c-5.153 0-9.344-4.193-9.344-9.346V64.384c0-5.152 4.191-9.345 9.344-9.345h90.606a3.667 3.667 0 0 0 3.663-3.663v-.348a3.666 3.666 0 0 0-3.663-3.662h-16.866a5.669 5.669 0 0 1-5.663-5.663 5.669 5.669 0 0 1 5.663-5.662h86.38a5.669 5.669 0 0 1 5.662 5.662v22.934a3.667 3.667 0 0 0 3.663 3.663h28.21c5.153 0 9.346 4.192 9.346 9.345v3.388c0 5.153-4.193 9.345-9.345 9.345H174.33a3.667 3.667 0 0 0-3.663 3.663v45.51a3.666 3.666 0 0 0 3.663 3.662h67.415c6.397 0 11.603 5.205 11.603 11.604v27.186c0 6.398-5.206 11.604-11.603 11.604h-78.562a3.666 3.666 0 0 0-3.663 3.662v10.669a5.669 5.669 0 0 1-5.663 5.662zM15.996 173.62c-4.05 0-7.345 3.295-7.345 7.346v23.288c0 4.05 3.295 7.345 7.345 7.345h137.862a3.666 3.666 0 0 0 3.663-3.662v-10.67a5.67 5.67 0 0 1 5.663-5.661h78.561c5.295 0 9.604-4.309 9.604-9.604v-27.186c0-5.295-4.309-9.604-9.604-9.604h-67.414a5.669 5.669 0 0 1-5.663-5.662V94.04a5.669 5.669 0 0 1 5.663-5.663h52.58c4.05 0 7.346-3.295 7.346-7.345v-3.388c0-4.05-3.295-7.345-7.345-7.345h-28.21a5.669 5.669 0 0 1-5.664-5.663V41.703a3.666 3.666 0 0 0-3.662-3.662h-86.38c-2.02 0-3.663 1.643-3.663 3.662s1.643 3.663 3.662 3.663h16.867a5.669 5.669 0 0 1 5.663 5.662v.348a5.669 5.669 0 0 1-5.663 5.663H29.256c-4.05 0-7.344 3.295-7.344 7.345v14.498c0 4.05 3.294 7.346 7.344 7.346h68.715a5.669 5.669 0 0 1 5.663 5.662v28.418a5.669 5.669 0 0 1-5.663 5.663H32.392a3.666 3.666 0 0 0-3.663 3.662v4.386a3.667 3.667 0 0 0 3.663 3.663h39.772a5.669 5.669 0 0 1 5.663 5.663v24.614a5.669 5.669 0 0 1-5.663 5.662H15.996zm207.679 52.319a1 1 0 0 1-1-1v-5.59a1 1 0 1 1 2 0v5.59a1 1 0 0 1-1 1z" class="colorEDF5F9 svgShape"></path><path fill="#edf5f9" d="M226.47 223.145h-5.59a1 1 0 1 1 0-2h5.59a1 1 0 1 1 0 2zm12.532-45.748c-2.233 0-4.048-1.816-4.048-4.048s1.815-4.048 4.048-4.048c2.232 0 4.048 1.815 4.048 4.048s-1.816 4.048-4.048 4.048zm0-6.096c-1.13 0-2.048.919-2.048 2.048s.918 2.048 2.048 2.048 2.048-.92 2.048-2.048-.919-2.048-2.048-2.048zm-23.864-59.996c-2.233 0-4.049-1.817-4.049-4.049s1.816-4.048 4.049-4.048c2.232 0 4.047 1.816 4.047 4.048s-1.815 4.049-4.047 4.049zm0-6.097a2.05 2.05 0 0 0-2.049 2.048c0 1.13.92 2.049 2.049 2.049s2.047-.92 2.047-2.049a2.05 2.05 0 0 0-2.047-2.048zM67.698 40.994c-1.97 0-3.573-1.602-3.573-3.573s1.603-3.573 3.573-3.573 3.573 1.602 3.573 3.573-1.603 3.573-3.573 3.573zm0-5.146c-.867 0-1.573.706-1.573 1.573s.706 1.573 1.573 1.573c.868 0 1.573-.706 1.573-1.573s-.705-1.573-1.573-1.573zM220.98 54.412a1 1 0 0 1-1-1v-5.59a1 1 0 1 1 2 0v5.59a1 1 0 0 1-1 1z" class="colorEDF5F9 svgShape"></path><path fill="#edf5f9" d="M223.775 51.617h-5.59a1 1 0 1 1 0-2h5.59a1 1 0 1 1 0 2zM50.472 74.165a1 1 0 0 1-1-1v-5.59a1 1 0 1 1 2 0v5.59a1 1 0 0 1-1 1z" class="colorEDF5F9 svgShape"></path><path fill="#edf5f9" d="M53.267 71.37h-5.59a1 1 0 1 1 0-2h5.59a1 1 0 1 1 0 2zm-28.465 91.128a1 1 0 0 1-1-1v-5.589a1 1 0 1 1 2 0v5.59a1 1 0 0 1-1 1z" class="colorEDF5F9 svgShape"></path><path fill="#edf5f9" d="M27.597 159.704h-5.59a1 1 0 1 1 0-2h5.59a1 1 0 1 1 0 2zm-12.65-48.146c-1.835 0-3.328-1.493-3.328-3.33s1.493-3.328 3.329-3.328 3.329 1.493 3.329 3.329-1.494 3.329-3.33 3.329zm0-4.658c-.732 0-1.328.596-1.328 1.329s.596 1.329 1.329 1.329 1.329-.597 1.329-1.33-.596-1.328-1.33-1.328z" class="colorEDF5F9 svgShape"></path><path fill="#434a54" d="M207.263 225.154H42.333c-13.24 0-21.69-14.14-15.42-25.8l82.46-153.32c3.31-6.14 9.37-9.21 15.43-9.21h10.39v3.39c1.99 1.46 3.73 3.4 5.03 5.82l82.46 153.32c6.28 11.66-2.17 25.8-15.42 25.8z" class="color434A54 svgShape"></path><path fill="#ff6060" d="M217.662 225.156H52.733c-13.247 0-21.697-14.14-15.422-25.806L119.774 46.04c6.61-12.288 24.234-12.289 30.843 0l82.467 153.31c6.275 11.667-2.175 25.807-15.422 25.807z" class="colorFF6060 svgShape"></path><path fill="#f44a4a" d="M217.665 225.158H52.731c-12.184 0-20.31-11.968-16.646-22.96 2.236 6.777 8.54 12.066 16.646 12.066h164.934c8.107 0 14.41-5.29 16.646-12.066 3.665 10.992-4.461 22.96-16.646 22.96z" class="colorF44A4A svgShape"></path><path fill="#ff8383" d="M234.311 213.094a18.415 18.415 0 0 0-1.23-2.847L150.617 56.936c-6.61-12.293-24.23-12.293-30.84 0L37.316 210.247a17.51 17.51 0 0 0-1.231 2.847c-1.428-4.304-1.212-9.21 1.231-13.74l82.462-153.312c6.61-12.293 24.23-12.293 30.84 0l82.462 153.312c2.433 4.53 2.65 9.436 1.231 13.74z" opacity=".4" class="colorFF8383 svgShape"></path><path fill="#edf5f9" d="m67.371 193.369 62.955-117.046c2.087-3.88 7.652-3.88 9.74 0l62.958 117.045c1.981 3.684-.687 8.149-4.87 8.149H72.24c-4.182 0-6.85-4.465-4.869-8.148z" class="colorEDF5F9 svgShape"></path><path fill="#edf5f9" d="M198.153 201.518H72.243c-4.186 0-6.855-4.461-4.875-8.145l27.077-50.333 35.882-66.712c1.261-2.354 3.802-3.28 6.078-2.778 1.477.315 2.836 1.251 3.664 2.778l62.96 117.045c1.98 3.684-.69 8.145-4.876 8.145z" class="colorEDF5F9 svgShape"></path><path fill="#ffffff" d="M133.509 112.417c-8.363 18.695-24.32 30.584-39.064 30.623l35.882-66.712c1.261-2.354 3.802-3.28 6.078-2.778 3.89 10.983 3.201 25.225-2.896 38.867z" class="colorFFF svgShape"></path><path fill="#c9dbe7" d="M198.153 201.518H126.91c25.6-12.243 43.348-38.246 43.693-68.436l32.426 60.29c1.98 3.685-.69 8.146-4.876 8.146z" class="colorC9DBE7 svgShape"></path><path fill="#434a54" d="M129.12 161.499h12.155l4.252-37.566c.698-6.165-4.125-11.565-10.33-11.565-6.204 0-11.027 5.4-10.329 11.565l4.252 37.566z" class="color434A54 svgShape"></path><path fill="#31394c" d="m145.526 123.932-4.246 37.567h-12.164l-1.074-9.486a8.238 8.238 0 0 0 8.186-7.31l3.427-30.257c.04-.354.06-.699.07-1.044 3.83 1.862 6.313 5.99 5.8 10.53z" class="color31394C svgShape"></path><path fill="#434a54" d="M143.384 176.864a8.179 8.179 0 0 1-8.186 8.187 8.185 8.185 0 0 1-8.187-8.187 8.19 8.19 0 0 1 8.187-8.186 8.184 8.184 0 0 1 8.186 8.186z" class="color434A54 svgShape"></path><path fill="#31394c" d="M143.388 176.865a8.18 8.18 0 0 1-8.195 8.185 8.169 8.169 0 0 1-8.106-7.102 8.188 8.188 0 0 0 5.171 1.832c4.521 0 8.185-3.664 8.185-8.195 0-.365-.02-.719-.069-1.074 1.842 1.517 3.014 3.793 3.014 6.354z" class="color31394C svgShape"></path><g fill="#31394c" class="color31394C svgShape"><path d="m233.963 198.872-82.46-153.31c-3.29-6.1-9.38-9.74-16.31-9.74h-10.39c-6.93 0-13.02 3.64-16.31 9.74l-82.46 153.32c-6.617 12.32 2.292 27.27 16.3 27.27h175.33c14.01 0 22.937-14.943 16.3-27.28zm-205.8 17.24c-3.01-5.03-3.15-11.12-.37-16.28l82.46-153.32c2.93-5.44 8.37-8.69 14.55-8.69h1.92c-3.26 1.67-5.99 4.32-7.83 7.74l-82.46 153.31c-5.141 9.558-.934 20.824 7.89 25.28-.61-.139-10.553 1.348-16.16-8.04zm189.5 8.04H52.733c-12.495 0-20.453-13.332-14.54-24.33l82.46-153.31c2.77-5.14 7.78-8.33 13.54-8.66a16.435 16.435 0 0 1 2 0c5.76.33 10.78 3.52 13.54 8.66l82.47 153.31c5.918 11.006-2.054 24.33-14.54 24.33z" fill="#000000" class="color000 svgShape"></path><path d="M67.223 167.312a1.003 1.003 0 0 0 1.36-.41l23.99-44.6c.26-.49.08-1.09-.41-1.36-.49-.26-1.09-.07-1.36.41l-23.99 44.6c-.26.49-.08 1.1.41 1.36zm29.43-54.72c.15.09.31.12.47.12.36 0 .7-.19.88-.52l2.4-4.46c.26-.49.08-1.1-.4-1.36-.49-.26-1.1-.08-1.36.41l-2.4 4.46a.993.993 0 0 0 .41 1.35zm44.29-36.74c-1.15-2.15-3.3-3.44-5.75-3.44-2.44 0-4.59 1.29-5.75 3.44l-62.95 117.04c-1.1 2.05-1.05 4.45.14 6.44 1.19 2 3.29 3.18 5.61 3.18h125.91c2.32 0 4.42-1.18 5.61-3.18 1.19-1.99 1.24-4.39.14-6.44l-62.96-117.04zm61.1 122.46a4.497 4.497 0 0 1-3.89 2.2H72.243c-1.61 0-3.06-.82-3.89-2.2a4.488 4.488 0 0 1-.1-4.47l62.95-117.05c.81-1.49 2.3-2.38 3.99-2.38 1.7 0 3.19.89 3.99 2.38l62.96 117.05c.76 1.42.72 3.09-.1 4.47z" fill="#000000" class="color000 svgShape"></path><path d="M135.193 111.372c-6.853 0-12.068 5.975-11.32 12.67l4.25 37.57c.06.5.49.89 1 .89h12.15c.51 0 .94-.39 1-.89l4.25-37.57c.75-6.706-4.478-12.67-11.33-12.67zm9.34 12.45-4.15 36.68h-10.37l-.97-8.56-3.18-28.12c-.627-5.563 3.72-10.45 9.33-10.45 5.633 0 9.967 4.898 9.34 10.45zm-9.34 43.86c-5.06 0-9.18 4.12-9.18 9.18 0 5.07 4.12 9.19 9.18 9.19 5.07 0 9.19-4.12 9.19-9.19 0-5.06-4.12-9.18-9.19-9.18zm0 16.37c-3.3 0-6.09-2.24-6.92-5.3-.17-.6-.26-1.23-.26-1.89 0-3.96 3.22-7.18 7.18-7.18 2.08 0 3.95.88 5.24 2.28a7.119 7.119 0 0 1 1.95 4.9c0 3.97-3.22 7.19-7.19 7.19z" fill="#000000" class="color000 svgShape"></path></g></svg>